<?xml version="1.0" encoding="UTF-8"?>
<!DOCTYPE svg PUBLIC "-//W3C//DTD SVG 1.1//EN" "http://www.w3.org/Graphics/SVG/1.1/DTD/svg11.dtd">
<!-- Creator: CorelDRAW X7 -->
<svg xmlns="http://www.w3.org/2000/svg" xml:space="preserve" version="1.1" style="shape-rendering:geometricPrecision; text-rendering:geometricPrecision; image-rendering:optimizeQuality; fill-rule:evenodd; clip-rule:evenodd"
viewBox="0 0 17727 3630"
 xmlns:xlink="http://www.w3.org/1999/xlink">
 <defs>
  <style type="text/css">
   <![CDATA[
    .fil0 {fill:#FEFEFE;fill-rule:nonzero}
   ]]>
  </style>
 </defs>
 <g id="Layer_x0020_1">
  <metadata id="CorelCorpID_0Corel-Layer"/>
  <path class="fil0" d="M9460 1764c-151,0 -261,50 -372,101l0 1145c107,10 167,10 268,10 365,0 414,-166 414,-399l0 -547c0,-172 -57,-310 -310,-310zm-2418 -62l0 0c-253,0 -311,138 -311,310l0 96 621 0 0 -96c0,-172 -58,-310 -310,-310zm-4686 1192l0 0c0,136 64,206 206,206 152,0 242,-49 352,-100l0 -271 -332 0c-157,0 -226,28 -226,165zm9457 -1130l0 0c-253,0 -341,138 -341,310l0 627c0,172 88,310 341,310 253,0 341,-138 341,-310l0 -627c0,-172 -88,-310 -341,-310zm-10697 1833l0 0 -744 0 0 -1799 -372 0 0 -620 372 0 0 -372c0,-505 210,-806 806,-806l497 0 0 620 -311 0c-232,0 -247,87 -247,248l-1 310 562 0 -66 620 -496 0 0 1799zm2543 4l0 0 -620 0 -27 -156c-283,156 -536,182 -703,182 -455,0 -697,-304 -697,-723 0,-495 283,-672 788,-672l514 0 0 -107c0,-253 -29,-327 -418,-327l-636 0 62 -620 696 0c853,0 1041,270 1041,952l0 1471zm2108 -1757l0 0c-386,-66 -496,-81 -682,-81 -334,0 -434,74 -434,356l0 536c0,283 100,356 434,356 186,0 296,-15 682,-81l0 604c-338,76 -558,96 -744,96 -799,0 -1116,-419 -1116,-1025l0 -435c0,-606 317,-1026 1116,-1026 186,0 406,20 744,95l0 605zm2329 761l0 0 -1365 0 0 50c0,283 101,356 435,356 300,0 482,-15 868,-81l0 604c-372,76 -565,96 -930,96 -799,0 -1117,-419 -1117,-1025l0 -497c0,-530 236,-964 1055,-964 818,0 1054,429 1054,964l0 497zm2418 11l0 0c0,586 -167,1013 -1183,1013 -366,0 -582,-32 -987,-95l0 -3348 744 -124 0 1172c161,-60 369,-90 559,-90 744,0 867,333 867,868l0 604zm2385 13l0 0c0,505 -209,995 -1083,995 -875,0 -1088,-490 -1088,-995l0 -488c0,-506 213,-996 1088,-996 874,0 1083,490 1083,996l0 488zm2382 0l0 0c0,505 -209,995 -1083,995 -874,0 -1087,-490 -1087,-995l0 -488c0,-506 213,-996 1087,-996 874,0 1083,490 1083,996l0 488zm2446 968l0 0 -807 0 -682 -1137 0 1137 -744 0 0 -3411 744 -124 0 2196 682 -1080 807 0 -745 1178 745 1241zm-3531 -1833l0 0c-253,0 -341,138 -341,310l0 627c0,172 88,310 341,310 252,0 341,-138 341,-310l0 -627c0,-172 -89,-310 -341,-310z"/>
 </g>
</svg>
