<?xml version="1.0" encoding="UTF-8"?>
<!DOCTYPE svg PUBLIC "-//W3C//DTD SVG 1.1//EN" "http://www.w3.org/Graphics/SVG/1.1/DTD/svg11.dtd">
<!-- Creator: CorelDRAW X7 -->
<svg xmlns="http://www.w3.org/2000/svg" xml:space="preserve" 
     version="1.1" style="shape-rendering:geometricPrecision; text-rendering:geometricPrecision; image-rendering:optimizeQuality; fill-rule:evenodd; clip-rule:evenodd"
viewBox="0 0 17957 3677"
 xmlns:xlink="http://www.w3.org/1999/xlink">
 <defs>
  <style type="text/css">
   <![CDATA[
    .fil0 {fill:#fff;fill-rule:nonzero}
   ]]>
  </style>
 </defs>
 <g id="Layer_x0020_1">
  <metadata id="CorelCorpID_0Corel-Layer"/>
  <path class="fil0" d="M9584 1787c-154,0 -265,51 -377,102l0 1160c107,11 169,11 271,11 369,0 419,-169 419,-405l0 -554c0,-174 -57,-314 -313,-314zm-2451 -63l0 0c-256,0 -314,140 -314,314l0 97 629 0 0 -97c0,-174 -59,-314 -315,-314zm-4746 1208l0 0c0,137 65,208 208,208 154,0 245,-50 357,-101l0 -275 -336 0c-159,0 -229,29 -229,168zm9580 -1145l0 0c-257,0 -345,140 -345,314l0 635c0,174 88,314 345,314 256,0 345,-140 345,-314l0 -635c0,-174 -89,-314 -345,-314zm-10837 1856l0 0 -753 0 0 -1821 -377 0 0 -628 377 0 0 -377c0,-512 212,-817 816,-817l503 0 0 628 -314 0c-235,0 -251,88 -251,252l-1 314 570 0 -67 628 -503 0 0 1821zm2576 5l0 0 -628 0 -27 -158c-287,158 -543,184 -712,184 -461,0 -706,-307 -706,-733 0,-501 286,-680 798,-680l521 0 0 -108c0,-256 -29,-331 -423,-331l-645 0 63 -628 705 0c865,0 1054,273 1054,964l0 1490zm2136 -1780l0 0c-391,-67 -503,-82 -691,-82 -338,0 -440,75 -440,361l0 542c0,287 102,361 440,361 188,0 300,-15 691,-82l0 612c-342,77 -565,97 -754,97 -809,0 -1130,-424 -1130,-1038l0 -440c0,-615 321,-1040 1130,-1040 189,0 412,20 754,97l0 612zm2359 771l0 0 -1382 0 0 50c0,287 102,361 440,361 304,0 489,-15 879,-82l0 612c-376,77 -572,97 -942,97 -809,0 -1131,-424 -1131,-1038l0 -504c0,-536 239,-976 1068,-976 830,0 1068,434 1068,976l0 504zm2450 11l0 0c0,593 -170,1026 -1198,1026 -372,0 -590,-33 -1000,-96l0 -3391 754 -126 0 1187c163,-61 373,-91 565,-91 754,0 879,337 879,879l0 612zm2415 13l0 0c0,512 -211,1008 -1097,1008 -886,0 -1101,-496 -1101,-1008l0 -494c0,-512 215,-1009 1101,-1009 886,0 1097,497 1097,1009l0 494zm2414 0l0 0c0,512 -212,1008 -1097,1008 -886,0 -1102,-496 -1102,-1008l0 -494c0,-512 216,-1009 1102,-1009 885,0 1097,497 1097,1009l0 494zm2477 980l0 0 -817 0 -691 -1151 0 1151 -753 0 0 -3454 753 -126 0 2224 691 -1093 817 0 -754 1193 754 1256zm-3577 -1856l0 0c-256,0 -344,140 -344,314l0 635c0,174 88,314 344,314 256,0 346,-140 346,-314l0 -635c0,-174 -90,-314 -346,-314z"/>
 </g>
</svg>
