<?xml version="1.0" encoding="UTF-8"?>
<!DOCTYPE svg PUBLIC "-//W3C//DTD SVG 1.1//EN" "http://www.w3.org/Graphics/SVG/1.1/DTD/svg11.dtd">
<!-- Creator: CorelDRAW X7 -->
<svg xmlns="http://www.w3.org/2000/svg" xml:space="preserve" width="100px" height="100px" version="1.1" style="shape-rendering:geometricPrecision; text-rendering:geometricPrecision; image-rendering:optimizeQuality; fill-rule:evenodd; clip-rule:evenodd"
viewBox="0 0 233054 233054"
 xmlns:xlink="http://www.w3.org/1999/xlink">
 <defs>
  <style type="text/css">
   <![CDATA[
    .fil1 {fill:#ED7250}
    .fil0 {fill:#EEEDED}
   ]]>
  </style>
 </defs>
 <g id="Layer_x0020_1">
  <metadata id="CorelCorpID_0Corel-Layer"/>
  <path class="fil0" d="M42806 0l147442 0c23636,0 42806,19169 42806,42806l0 147442c0,23636 -19170,42805 -42806,42805l-147442 1c-23636,-1 -42805,-19170 -42805,-42807l-1 -147441c1,-23637 19170,-42806 42807,-42806z"/>
  <g>
   <path id="Combined-Shape" class="fil1" d="M120634 161931l7611 -10100 -7611 10100zm14932 -19815l7743 -10276 -7743 10276zm15065 -19991l7610 -10099 -7610 10099zm14931 -19815l4704 -6242c1896,-2516 -341,-7070 -4358,-10097l-33340 -25124c-4017,-3027 -9011,-3921 -10907,-1406l-50151 98266c-1723,2287 341,7069 4358,10096l21103 9652c4474,1522 9804,2869 11963,2l4380 -5811 52248 -69336zm-44928 59621l0 0 0 0zm37607 -49905l7321 -9716c-115,-101 -235,-198 -360,-292l-12744 -9604c-2645,-1993 -6530,-1501 -8557,1190 -2042,2709 -1484,6520 1214,8553l12746 9604c124,94 251,182 380,265l0 0 0 0 0 0 0 0 0 0 0 0 0 0 0 0zm-7610 10099l-7322 9715c-129,-83 -256,-171 -380,-265l-12745 -9603c-2698,-2034 -3256,-5844 -1215,-8554 2028,-2690 5913,-3182 8557,-1189l12745 9603c124,94 244,192 360,293l0 0 0 0 0 0 0 0 0 0 0 0 0 0 0 0zm-22386 29706l7321 -9715c-116,-101 -236,-198 -360,-292l-12745 -9604c-2644,-1992 -6529,-1500 -8556,1190 -2042,2709 -1484,6520 1214,8553l12745 9604c124,94 251,182 381,264l0 0 0 0 0 0 0 0 0 0 0 0 0 0 0 0zm-7611 10100l-7320 9715c-130,-83 -257,-171 -381,-264l-12745 -9604c-2698,-2034 -3256,-5844 -1214,-8553 2027,-2691 5911,-3183 8556,-1191l12745 9605c124,93 244,191 359,292l0 0 0 0 0 0 0 0 0 0 0 0 0 0 0 0z"/>
  </g>
 </g>
</svg>
