<?xml version="1.0" encoding="UTF-8"?>
<!DOCTYPE svg PUBLIC "-//W3C//DTD SVG 1.1//EN" "http://www.w3.org/Graphics/SVG/1.1/DTD/svg11.dtd">
<!-- Creator: CorelDRAW X7 -->
<svg xmlns="http://www.w3.org/2000/svg" xml:space="preserve" width="361px" height="200px" version="1.1" style="shape-rendering:geometricPrecision; text-rendering:geometricPrecision; image-rendering:optimizeQuality; fill-rule:evenodd; clip-rule:evenodd"
viewBox="0 0 6072488 3365807"
 xmlns:xlink="http://www.w3.org/1999/xlink">
 <defs>
  <style type="text/css">
   <![CDATA[
    .str0 {stroke:#FEFEFE;stroke-width:39603.1}
    .fil0 {fill:#F47C5B}
   ]]>
  </style>
 </defs>
 <g id="Layer_x0020_1">
  <metadata id="CorelCorpID_0Corel-Layer"/>
  <path id="pretit-copy-2" class="fil0 str0" d="M366588 2464396c39502,22565 141023,62153 250993,62153 304610,0 558406,-259985 558406,-593459 0,-324934 -234056,-593347 -544268,-593347 -183328,0 -321462,98830 -363853,155359l-36590 -93205c-8428,-22651 -28276,-33878 -47907,-33878l-109948 0c-28276,0 -53618,22561 -53618,53618l0 1870641c0,28275 25365,53726 53618,53726l225629 0c50620,0 67560,-19740 67560,-53726l0 -827882 -22 0zm-14029 -308106l0 -339075c16936,-59328 87409,-172296 231230,-172296 155165,0 262224,129995 262224,288152 0,158267 -115573,288258 -273536,288258 -141023,0 -219918,-65039 -219918,-65039l0 0zm1081090 288366c0,28167 25450,53618 53617,53618l217116 0c39502,0 64952,-14138 64952,-53618l0 -683948c19740,-39498 87409,-115767 200178,-115767 30970,0 73272,14030 81785,16937 22561,11231 50729,0 64844,-25450l104346 -183717c33791,-70663 -84606,-112968 -217116,-112968 -174814,0 -279160,118679 -318748,175208l-39502 -110255c-8427,-22648 -25364,-36677 -50620,-36677l-107257 0c-28167,0 -53618,22561 -53618,53618l0 1023019 23 0zm1450653 81893c183241,0 327175,-67864 420186,-155445 28164,-22561 22562,-53726 2800,-73465l-115659 -132794c-19740,-22562 -45018,-16937 -73271,0 -50815,36789 -132599,70667 -220004,70667 -163588,0 -262224,-129995 -270647,-245848l721885 0c25365,0 50729,-19740 53528,-48016 2911,-19848 5714,-56528 5714,-76377 0,-305085 -236945,-525483 -527440,-525483 -335490,0 -575261,274120 -575261,593347 0,325046 239771,593455 578150,593455l19 -41zm-231231 -734785c14138,-107343 107145,-192144 219918,-192144 107145,0 197466,87690 205889,192144l-425807 0zm1055835 370237c0,228910 95832,364526 312929,364526 138220,0 321547,-65039 335577,-73466 28167,-11335 42304,-39502 31074,-67864l-56439 -178006c-8427,-28272 -30966,-42387 -62041,-31075 -30970,11227 -90212,31075 -138137,31075 -45213,0 -87405,-11226 -87405,-90403l0 -452129 248081 0c31075,0 53532,-25451 53532,-53726l0 -189319c0,-31075 -22457,-53617 -53532,-53617l-248081 0 0 -316511c0,-28275 -22652,-53726 -50819,-53726l-231230 2799c-28168,0 -53532,25454 -53532,53726l0 313712 -95918 0c-28276,0 -50815,22561 -50815,53617l0 189319c0,28275 22561,53726 50815,53726l95918 0 0 497319 23 23zm917502 282655c0,28167 25364,53618 53617,53618l234057 0c28167,0 53531,-25451 53531,-53618l0 -1023019c0,-31079 -25364,-53618 -53531,-53618l-234057 0c-28275,0 -53617,22561 -53617,53618l0 1023019zm742797 -282655c0,228910 95836,364526 312929,364526 138224,0 321551,-65039 335689,-73466 28163,-11335 42301,-39502 30966,-67864l-56439 -178006c-8427,-28272 -30970,-42387 -61958,-31075 -31075,11227 -90317,31075 -138220,31075 -45108,0 -87409,-11226 -87409,-90403l0 -452129 248171 0c30966,0 53532,-25451 53532,-53726l0 -189319c0,-31075 -22566,-53617 -53532,-53617l-248171 0 0 -316511c0,-28275 -22651,-53726 -50815,-53726l-231234 2799c-28164,0 -53528,25454 -53528,53726l0 313712 -95922 0c-28164,0 -50729,22561 -50729,53617l0 189319c0,28275 22565,53726 50729,53726l95922 0 0 497319 19 23z"/>
  <path id="Combined-Shape" class="fil0 str0" d="M5088593 733041l52075 -69099 -52075 69099zm102325 -135705l53052 -70360 -53052 70360zm103171 -136963l52165 -69207 -52165 69207zm102329 -135701l32227 -42784c12963,-17326 -2414,-48599 -30102,-69402l-229408 -172883c-27580,-20802 -61955,-27100 -74918,-9771l-343222 673590c-11814,15676 2410,48599 30098,69293l145083 66603c30772,10448 67362,19848 82282,198l29904 -39786 358033 -475058 23 0zm-307825 408369l0 0 0 0zm257680 -341875l50145 -66494c-782,-782 -1651,-1456 -2519,-2043l-87689 -66105c-18199,-13745 -44824,-10444 -58767,8038 -14026,18587 -10074,44711 8513,58763l87604 66015c977,674 1845,1261 2713,1849l0 0 0 0 0 0 0 0 0 0 0 0 0 0 0 0 0 -23zm-52184 69207l-50141 66603c-868,-584 -1737,-1149 -2605,-1845l-87689 -66105c-18677,-14025 -22457,-40172 -8514,-58654 13943,-18479 40565,-21865 58849,-8121l87604 66105c868,670 1736,1344 2518,2040l0 0 0 0 0 0 0 0 0 0 0 0 0 0 0 0 -22 -23zm-153421 203547l50227 -66603c-868,-673 -1650,-1347 -2518,-2043l-87690 -66105c-18198,-13636 -44909,-10358 -58763,8124 -14029,18479 -10077,44711 8424,58655l87690 66105c868,673 1740,1257 2608,1844l0 0 0 0 0 0 0 0 0 0 0 0 0 0 0 0 22 23zm-52075 69121l-50231 66689c-868,-674 -1736,-1258 -2605,-1845l-87689 -66105c-18483,-14026 -22457,-40172 -8428,-58763 13835,-18393 40565,-21779 58763,-8034l87690 66105c868,583 1650,1257 2518,1931l0 0 0 0 0 0 0 0 0 0 0 0 0 0 0 0 -18 22z"/>
 </g>
</svg>
