<?xml version="1.0" encoding="UTF-8"?>
<!DOCTYPE svg PUBLIC "-//W3C//DTD SVG 1.1//EN" "http://www.w3.org/Graphics/SVG/1.1/DTD/svg11.dtd">
<!-- Creator: CorelDRAW X7 -->
<svg xmlns="http://www.w3.org/2000/svg" xml:space="preserve" width="105px" height="58px" version="1.1" style="shape-rendering:geometricPrecision; text-rendering:geometricPrecision; image-rendering:optimizeQuality; fill-rule:evenodd; clip-rule:evenodd"
viewBox="0 0 62328 34364"
 xmlns:xlink="http://www.w3.org/1999/xlink">
 <defs>
  <style type="text/css">
   <![CDATA[
    .fil0 {fill:#fff}
   ]]>
  </style>
 </defs>
 <g id="Layer_x0020_1">
  <metadata id="CorelCorpID_0Corel-Layer"/>
  <g id="_2047511659248">
   <g id="Page-1">
    <g id="main_logo_red">
     <g id="Group-2-Copy-2">
      <path id="pretit-copy-2" class="fil0" d="M3583 25256c408,233 1457,642 2593,642 3147,0 5769,-2686 5769,-6131 0,-3357 -2418,-6130 -5623,-6130 -1894,0 -3321,1021 -3759,1605l-378 -963c-87,-234 -292,-350 -495,-350l-1136 0c-292,0 -554,233 -554,554l0 19326c0,292 262,555 554,555l2331 0c523,0 698,-204 698,-555l0 -8553zm-145 -3183l0 -3503c175,-613 903,-1780 2389,-1780 1603,0 2709,1343 2709,2977 0,1635 -1194,2978 -2826,2978 -1457,0 -2272,-672 -2272,-672l0 0zm11169 2979c0,291 263,554 554,554l2243 0c408,0 671,-146 671,-554l0 -7066c204,-408 903,-1196 2068,-1196 320,0 757,145 845,175 233,116 524,0 670,-263l1078 -1898c349,-730 -874,-1167 -2243,-1167 -1806,0 -2884,1226 -3293,1810l-408 -1139c-87,-234 -262,-379 -523,-379l-1108 0c-291,0 -554,233 -554,554l0 10569zm14987 846c1893,0 3380,-701 4341,-1606 291,-233 233,-555 29,-759l-1195 -1372c-204,-233 -465,-175 -757,0 -525,380 -1370,730 -2273,730 -1690,0 -2709,-1343 -2796,-2540l7458 0c262,0 524,-204 553,-496 30,-205 59,-584 59,-789 0,-3152 -2448,-5429 -5449,-5429 -3466,0 -5943,2832 -5943,6130 0,3358 2477,6131 5973,6131zm-2389 -7591c146,-1109 1107,-1985 2272,-1985 1107,0 2040,906 2127,1985l-4399 0zm10908 3825c0,2365 990,3766 3233,3766 1428,0 3322,-672 3467,-759 291,-117 437,-408 321,-701l-583 -1839c-87,-292 -320,-438 -641,-321 -320,116 -932,321 -1427,321 -467,0 -903,-116 -903,-934l0 -4671 2563 0c321,0 553,-263 553,-555l0 -1956c0,-321 -232,-554 -553,-554l-2563 0 0 -3270c0,-292 -234,-555 -525,-555l-2389 29c-291,0 -553,263 -553,555l0 3241 -991 0c-292,0 -525,233 -525,554l0 1956c0,292 233,555 525,555l991 0 0 5138zm9479 2920c0,291 262,554 554,554l2418 0c291,0 553,-263 553,-554l0 -10569c0,-321 -262,-554 -553,-554l-2418 0c-292,0 -554,233 -554,554l0 10569zm7674 -2920c0,2365 990,3766 3233,3766 1428,0 3322,-672 3468,-759 291,-117 437,-408 320,-701l-583 -1839c-87,-292 -320,-438 -640,-321 -321,116 -933,321 -1428,321 -466,0 -903,-116 -903,-934l0 -4671 2564 0c320,0 553,-263 553,-555l0 -1956c0,-321 -233,-554 -553,-554l-2564 0 0 -3270c0,-292 -234,-555 -525,-555l-2389 29c-291,0 -553,263 -553,555l0 3241 -991 0c-291,0 -524,233 -524,554l0 1956c0,292 233,555 524,555l991 0 0 5138z"/>
      <g id="Group">
       <g>
        <path id="Combined-Shape" class="fil0" d="M52367 7369l538 -714 -538 714zm1057 -1402l548 -727 -548 727zm1066 -1415l539 -715 -539 715zm1057 -1402l333 -442c134,-179 -25,-502 -311,-717l-2370 -1786c-285,-215 -640,-280 -774,-101l-3546 6959c-122,162 25,502 311,716l1499 688c318,108 696,205 850,2l309 -411 3699 -4908zm-3180 4219l0 0 0 0zm2662 -3532l518 -687c-8,-8 -17,-15 -26,-21l-906 -683c-188,-142 -463,-108 -607,83 -145,192 -104,462 88,607l905 682c10,7 19,13 28,19l0 0 0 0 0 0 0 0 0 0 0 0 0 0 0 0zm-539 715l-518 688c-9,-6 -18,-12 -27,-19l-906 -683c-193,-145 -232,-415 -88,-606 144,-191 419,-226 608,-84l905 683c9,7 18,14 26,21l0 0 0 0 0 0 0 0 0 0 0 0 0 0 0 0zm-1585 2103l519 -688c-9,-7 -17,-14 -26,-21l-906 -683c-188,-141 -464,-107 -607,84 -145,191 -104,462 87,606l906 683c9,7 18,13 27,19l0 0 0 0 0 0 0 0 0 0 0 0 0 0 0 0zm-538 714l-519 689c-9,-7 -18,-13 -27,-19l-906 -683c-191,-145 -232,-415 -87,-607 143,-190 419,-225 607,-83l906 683c9,6 17,13 26,20l0 0 0 0 0 0 0 0 0 0 0 0 0 0 0 0z"/>
       </g>
      </g>
     </g>
    </g>
   </g>
  </g>
 </g>
</svg>
