<?xml version="1.0" encoding="UTF-8"?>
<!DOCTYPE svg PUBLIC "-//W3C//DTD SVG 1.1//EN" "http://www.w3.org/Graphics/SVG/1.1/DTD/svg11.dtd">
<!-- Creator: CorelDRAW X7 -->
<svg xmlns="http://www.w3.org/2000/svg" xml:space="preserve" width="45px" height="42px" version="1.1" style="shape-rendering:geometricPrecision; text-rendering:geometricPrecision; image-rendering:optimizeQuality; fill-rule:evenodd; clip-rule:evenodd"
viewBox="0 0 70279 65509"
 xmlns:xlink="http://www.w3.org/1999/xlink">
 <defs>
  <style type="text/css">
   <![CDATA[
    .fil0 {fill:none}
    .fil1 {fill:#7D1A51}
    .fil2 {fill:#A34F9D}
    .fil3 {fill:#E74197}
   ]]>
  </style>
 </defs>
 <g id="Layer_x0020_1">
  <metadata id="CorelCorpID_0Corel-Layer"/>
  <path class="fil0" d="M1754 16932c-7905,11063 12334,29561 32261,48072 8875,7530 64203,-71986 18196,-64506 -4661,3042 -7111,10371 -8292,18121 -20306,-7500 -35992,-10789 -42165,-1687z"/>
  <path class="fil0" d="M4186 33665c18730,4766 33287,2095 39733,-15046"/>
  <path class="fil0" d="M44142 17244c12241,126 20901,-3410 25574,-11063"/>
  <path class="fil1" d="M69505 6522c-4721,7417 -13303,10845 -25363,10722 -78,458 -153,915 -223,1375 -6446,17141 -21003,19812 -39733,15046 6109,9413 18023,20373 29829,31339 6899,5856 41861,-40882 35490,-58482z"/>
  <path class="fil2" d="M43919 18619c-20306,-7500 -35992,-10789 -42165,-1687 -3221,4511 -1769,10254 2432,16733 18730,4766 33287,2095 39733,-15046z"/>
  <path class="fil3" d="M52211 498c-4387,2859 -6812,9517 -8069,16746 12060,123 20642,-3305 25363,-10722 -1828,-5040 -7047,-7689 -17294,-6024z"/>
 </g>
</svg>
