<?xml version="1.0" encoding="UTF-8"?>
<!DOCTYPE svg PUBLIC "-//W3C//DTD SVG 1.1//EN" "http://www.w3.org/Graphics/SVG/1.1/DTD/svg11.dtd">
<!-- Creator: CorelDRAW X7 -->
<svg xmlns="http://www.w3.org/2000/svg" xml:space="preserve"  version="1.1" style="shape-rendering:geometricPrecision; text-rendering:geometricPrecision; image-rendering:optimizeQuality; fill-rule:evenodd; clip-rule:evenodd"
viewBox="0 0 119496 31207"
 xmlns:xlink="http://www.w3.org/1999/xlink">
 <defs>
  <style type="text/css">
   <![CDATA[
    .fil0 {fill:none}
    .fil1 {fill:#7D1A51}
    .fil2 {fill:#A34F9D}
    .fil3 {fill:#E74197}
    .fil4 {fill:#373435;fill-rule:nonzero}
   ]]>
  </style>
 </defs>
 <g id="Layer_x0020_1">
  <metadata id="CorelCorpID_0Corel-Layer"/>
  <path class="fil0" d="M836 8066c-3766,5270 5876,14081 15368,22900 4228,3587 30584,-34292 8668,-30729 -2221,1449 -3387,4940 -3950,8633 -9673,-3574 -17145,-5140 -20086,-804z"/>
  <path class="fil0" d="M1995 16037c8921,2270 15857,998 18927,-7167"/>
  <path class="fil0" d="M21029 8215c5831,60 9956,-1625 12182,-5271"/>
  <path class="fil1" d="M33110 3107c-2250,3532 -6337,5166 -12081,5108 -38,217 -73,435 -107,655 -3070,8165 -10006,9437 -18927,7167 2909,4484 8585,9705 14209,14929 3287,2789 19941,-19476 16906,-27859z"/>
  <path class="fil2" d="M20922 8870c-9673,-3574 -17145,-5140 -20086,-804 -1534,2148 -843,4885 1159,7971 8921,2270 15857,998 18927,-7167z"/>
  <path class="fil3" d="M24872 237c-2090,1363 -3245,4533 -3843,7978 5744,58 9831,-1576 12081,-5108 -870,-2401 -3357,-3663 -8238,-2870z"/>
  <path class="fil4" d="M56708 26703c-430,0 -800,-59 -1106,-173 -307,-115 -554,-265 -736,-448 -183,-183 -330,-425 -430,-722 -101,-302 -169,-599 -201,-901 -32,-297 -46,-653 -46,-1065l0 -11754 -2075 0 0 -965 2075 0 0 -5059 1444 0 0 5059 2692 0 0 965 -2692 0 0 11580c0,906 92,1518 270,1842 178,325 553,489 1124,489 274,0 662,-45 1166,-132l0 1097c-458,123 -951,187 -1485,187z"/>
  <path id="1" class="fil4" d="M64622 30478l0 -1179c927,0 1649,-73 2161,-224 512,-155 850,-357 1014,-603 170,-252 252,-590 252,-1019 0,-142 -5,-256 -14,-334 -28,-279 -178,-1010 -457,-2198 -516,-2120 -1622,-6873 -3318,-14246l1431 0 3135 14475 2998 -14475 1458 0 -3867 17152c-214,937 -648,1614 -1302,2030 -649,416 -1613,621 -2893,621l-598 0z"/>
  <polygon id="2" class="fil4" points="80432,26530 80432,4332 81894,4332 81894,26530 "/>
  <path id="3" class="fil4" d="M90210 8601l0 -2532 1458 0 0 2532 -1458 0zm0 17929l0 -15855 1458 0 0 15855 -1458 0z"/>
  <path id="4" class="fil4" d="M103479 26785c-1229,0 -2212,-401 -2942,-1206 -736,-804 -1157,-1910 -1276,-3322l1234 -362c188,2528 1202,3789 3053,3789 786,0 1399,-219 1846,-662 449,-440 668,-1066 668,-1866 0,-1206 -772,-2458 -2312,-3765l-1838 -1550c-809,-681 -1394,-1320 -1755,-1928 -356,-608 -534,-1293 -534,-2061 0,-1083 324,-1924 973,-2527 644,-604 1522,-901 2628,-901 1143,0 2015,366 2619,1097 602,731 928,1755 968,3067l-1083 320c-68,-2258 -882,-3387 -2436,-3387 -703,0 -1270,183 -1695,549 -421,365 -636,881 -636,1553 0,622 110,1152 330,1577 219,430 648,918 1293,1462l1887 1673c453,393 814,718 1079,978 260,256 553,595 868,1005 316,407 553,846 704,1313 151,461 233,968 242,1512 0,1143 -352,2034 -1046,2679 -695,639 -1641,963 -2839,963z"/>
  <path id="5" class="fil4" d="M117878 26703c-429,0 -799,-59 -1106,-173 -306,-115 -553,-265 -735,-448 -183,-183 -330,-425 -430,-722 -101,-302 -169,-599 -201,-901 -32,-297 -46,-653 -46,-1065l0 -11754 -2075 0 0 -965 2075 0 0 -5059 1444 0 0 5059 2692 0 0 965 -2692 0 0 11580c0,906 92,1518 270,1842 178,325 552,489 1124,489 274,0 662,-45 1166,-132l0 1097c-458,123 -951,187 -1486,187z"/>
 </g>
</svg>
