<?xml version="1.0" encoding="UTF-8"?>
<!DOCTYPE svg PUBLIC "-//W3C//DTD SVG 1.1//EN" "http://www.w3.org/Graphics/SVG/1.1/DTD/svg11.dtd">
<!-- Creator: CorelDRAW X7 -->
<svg xmlns="http://www.w3.org/2000/svg" xml:space="preserve" width="50px" height="50px" version="1.1" style="shape-rendering:geometricPrecision; text-rendering:geometricPrecision; image-rendering:optimizeQuality; fill-rule:evenodd; clip-rule:evenodd"
viewBox="0 0 91343 90920"
 xmlns:xlink="http://www.w3.org/1999/xlink">
 <defs>
  <style type="text/css">
   <![CDATA[
    .str0 {stroke:#4B4B4D;stroke-width:902.912}
    .fil1 {fill:none}
    .fil0 {fill:#4B4B4D}
   ]]>
  </style>
 </defs>
 <g id="Layer_x0020_1">
  <metadata id="CorelCorpID_0Corel-Layer"/>
  <g id="_2047511627568">
   <path class="fil0" d="M37556 15311c8812,-382 11593,-4447 12411,-6302 828,1855 3609,5920 12416,6302 3724,-359 9741,-427 9741,-6011 -3585,2579 -10021,1218 -11239,-3723 -928,-4728 -9028,-7523 -10918,-3974 -1877,-3549 -9977,-754 -10910,3974 -1218,4942 -7653,6302 -11235,3723 0,5584 6015,5652 9734,6011z"/>
   <path class="fil0" d="M19373 24838c0,0 -3503,6727 -6068,11740 563,1138 1073,2161 1469,2979l5286 -15326 -687 607z"/>
   <path class="fil0" d="M10641 41892c-2163,4188 -6718,5944 -7047,6068 -1531,344 -2843,1599 -3367,3296 -356,1158 -292,2395 184,3447 490,1094 1351,1880 2429,2206 349,106 705,157 1074,166 1891,9 3647,-1379 4259,-3397 0,-9 4,-18 4,-18 5,9 12,22 12,22l4183 -12177 5 -5 -1257 -630c-272,565 -447,933 -479,1022zm-3753 11396c-441,1452 -1662,2454 -2965,2445 -234,0 -467,-37 -687,-101 -706,-216 -1272,-735 -1596,-1471 -345,-763 -386,-1659 -128,-2519 452,-1443 1666,-2445 2971,-2445 235,0 465,36 688,110 701,211 1266,735 1595,1471 349,754 391,1655 122,2510z"/>
   <path class="fil0" d="M13583 41479l3802 12048c21,74 34,152 57,239 566,2055 2297,3493 4213,3512 343,0 692,-37 1030,-129 1083,-303 1963,-1057 2487,-2137 504,-1044 607,-2267 283,-3453 -485,-1747 -1814,-3052 -3381,-3411 -490,-207 -4769,-2078 -6764,-6233 -226,-701 -8571,-17218 -8571,-17218l-669 -579 5342 16259 2171 1102zm5342 9414c349,-713 933,-1228 1638,-1430 212,-55 433,-87 658,-87 1319,14 2524,1053 2933,2524 236,883 170,1765 -194,2519 -346,717 -931,1227 -1631,1425 -223,55 -444,83 -669,83 -1313,-9 -2524,-1039 -2928,-2519 -235,-865 -166,-1766 193,-2515zm-6261 -12145c391,5 705,324 701,719 0,391 -324,704 -710,704 -391,0 -710,-322 -705,-713 -1,-400 318,-710 714,-710z"/>
   <path class="fil0" d="M84660 21742c0,0 4523,-48 5199,-58 685,0 1167,-319 1057,-1342 -873,9 -6987,-60 -7621,-55 -630,9 -1347,184 -1343,819 0,9 5,71 5,147l5 963 391 40620c0,666 4,1057 4,1108 10,625 722,781 1356,781 630,0 6753,-184 7618,-193 96,-1030 -396,-1333 -1081,-1333 -676,9 -5199,59 -5199,59l-671 -446 0 -335 6597 -69 -9 -865 -6597 65 -9 -736 6601 -64 -9 -864 -6596 64 -5 -717 6592 -73 -5 -851 -6597 60 -4 -598 6601 -69 -14 -859 -6592 59 -4 -717 6592 -60 -5 -855 -6601 60 0 -602 6592 -74 -10 -860 -6591 69 -5 -717 6596 -64 -13 -860 -6588 69 -9 -754 6592 -64 -9 -856 -6592 65 -4 -717 6591 -69 -5 -860 -6596 65 -5 -754 6592 -69 -9 -841 -6587 64 -14 -726 6592 -60 -9 -860 -6587 65 -5 -607 6587 -64 -9 -864 -6583 64 -9 -717 6592 -65 -5 -855 -6592 67 -9 -749 6587 -67 0 -860 -6596 69 -5 -714 6587 -71 -4 -862 -6592 66 -9 -701 6596 -66 -9 -860 -6592 64 -9 -715 6597 -66 -9 -866 -6597 66 -4 -738 6596 -66 -9 -858 -6597 63 -4 -720 6596 -62 -9 -862 -6592 66 -9 -758 6592 -67 -4 -864 -6597 65 -5 -715 6597 -66 -9 -851 -6597 56 -9 -603 6602 -62 -5 -862 -6597 62 -4 -714 6587 -72 0 -852 -6597 62 -9 -743 6587 -71 -5 -857 -6587 62 -9 -713 6592 -69 -5 -857 -6592 66 -9 -749 6592 -71 -5 -855 -6596 65 0 -207 634 -446z"/>
   <path class="fil0" d="M67679 73220c-4450,4790 -12214,9088 -22685,12898 -1549,-808 -2821,-1424 -3253,-1774 -1055,-850 -4082,-2620 -4082,-2620 0,0 637,-818 368,-938 -269,-128 -11472,-5507 -11472,-5507 0,0 -2640,2142 -829,3043 1103,543 10196,5057 17183,8532 -115,37 -233,83 -345,115 -931,280 -274,1503 1535,2101 719,110 1676,18 2777,-249 2523,1260 4222,2097 4222,2097 0,0 795,64 620,-525 -804,-744 -1820,-1466 -2898,-2142 7601,-2574 19502,-10103 20293,-11004 988,-1113 -1103,-5223 -1434,-4027zm-22739 14875c-257,0 -468,-211 -468,-469 0,-257 206,-469 464,-473 260,0 471,216 476,468 -5,263 -207,474 -472,474zm22523 -11786c-257,0 -465,-212 -465,-469 0,-253 203,-469 465,-469 257,-9 468,212 468,465 5,261 -206,473 -468,473z"/>
   <line class="fil1 str0" x1="13516" y1="8794" x2="79810" y2= "75086" />
   <line class="fil1 str0" x1="80378" y1="9365" x2="14084" y2= "75658" />
  </g>
 </g>
</svg>
