<?xml version="1.0" encoding="UTF-8"?>
<!DOCTYPE svg PUBLIC "-//W3C//DTD SVG 1.1//EN" "http://www.w3.org/Graphics/SVG/1.1/DTD/svg11.dtd">
<!-- Creator: CorelDRAW X7 -->
<svg xmlns="http://www.w3.org/2000/svg" xml:space="preserve" width="65px" height="50px" version="1.1" style="shape-rendering:geometricPrecision; text-rendering:geometricPrecision; image-rendering:optimizeQuality; fill-rule:evenodd; clip-rule:evenodd"
viewBox="0 0 143609 110317"
 xmlns:xlink="http://www.w3.org/1999/xlink">
 <defs>
  <style type="text/css">
   <![CDATA[
    .fil0 {fill:#4B4B4D}
   ]]>
  </style>
 </defs>
 <g id="Layer_x0020_1">
  <metadata id="CorelCorpID_0Corel-Layer"/>
  <g id="_2047511632112">
   <g>
    <g>
     <path class="fil0" d="M97953 49146c3633,1791 7496,3705 10715,5312l-20213 -16670 564 1490c4,-4 4180,4619 8934,9868z"/>
     <path class="fil0" d="M129282 75156c-9,-9 -22,-14 -36,-23 27,0 49,5 49,5l-16527 -13612 -3007 547c154,168 282,308 423,458l-5949 7673 -15375 -11915 0 -92 -203 -62 -221 -172 -71 93 -9445 -2726c0,6575 -5326,11902 -11894,11902 -6570,0 -11895,-5327 -11895,-11902l-12995 2858 -13 -22 -15799 12249 -6101 -7884 17109 -15623 708 -646c60,-55 99,-94 110,-103 463,-426 113,-1067 -313,-1533 -428,-467 -4641,-4898 -5227,-5538 -823,613 -728,1186 -267,1689 461,500 3507,3841 3507,3841l113 787 -152 139 -4445 -4864 -635 580 4443 4866 -556 507 -4438 -4868 -633 577 4442 4868 -531 483 -4444 -4867 -630 580 4443 4866 -551 500 -4443 -4861 -638 577 4443 4869 -527 483 -4445 -4869 -631 578 4443 4868 -447 406 -4443 -4866 -637 577 4442 4866 -527 485 -4441 -4868 -638 578 4443 4868 -565 509 -4442 -4866 -633 578 4442 4866 -522 491 -4443 -4865 -633 577 4443 4869 -551 498 -4442 -4867 -638 582 4443 4866 -532 485 -4442 -4865 -633 577 4443 4866 -518 472 -4445 -4864 -631 578 4443 4868 -529 481 -4443 -4866 -632 577 4444 4866 -551 503 -4445 -4868 -630 578 4442 4863 -534 481 -4442 -4864 -637 578 4442 4868 -445 406 -4443 -4868 -637 577 4442 4868 -529 494 -4442 -4864 -637 578 4449 4864 -560 515 -4445 -4868 -631 578 4443 4868 -533 485 -4443 -4868 -633 582 4445 4868 -551 503 -4445 -4868 -635 577 4443 4869 -529 480 -4443 -4868 -637 578 4445 4868 -448 410 -4447 -4868 -632 578 4442 4867 -533 481 -4434 -4864 -630 582 4442 4868 -448 406 -4442 -4864 -638 578 4443 4864 -527 485 -4445 -4869 -630 578 4446 4868 -551 503 -4442 -4868 -632 573 4442 4869 -251 234 -778 -186c0,0 -3052,-3342 -3508,-3840 -461,-503 -1021,-653 -1707,114 586,644 4615,5239 5044,5711 424,467 1034,873 1495,449 35,-31 324,-300 820,-749l4648 -4238 5549 7161 600 772 6208 8008 8769 -6791 -14 -17 9780 -7576 1865 38719 41035 0 2258 -38627 9392 7276 -13 14 8771 6794 6208 -8007 600 -777 3210 -4145c935,3458 926,6178 926,6315 -340,2663 842,5574 3316,7474 3545,2721 8413,2359 10843,-807 2426,-3153 1517,-7950 -2028,-10671zm163 9251c-1640,2138 -5035,2306 -7553,375 -2518,-1931 -3233,-5252 -1592,-7387 1645,-2147 5031,-2310 7549,-374 2527,1932 3241,5248 1596,7386z"/>
     <path class="fil0" d="M140222 62002c-2526,-1944 -5723,-2306 -8228,-1217 -600,163 -8704,2209 -15998,-1543 -1058,-746 -30011,-14953 -30011,-14953l-1512 -90 24494 17009 4172 -754 17946 12757c106,92 212,185 326,277 3546,2721 8405,2360 10839,-802 2426,-3170 1517,-7963 -2028,-10684zm-29627 -2725c-419,543 -1195,648 -1733,230 -547,-424 -644,-1196 -230,-1738 415,-542 1196,-639 1738,-225 537,415 639,1191 225,1733zm29786 11981c-1641,2139 -5027,2306 -7554,370 -2517,-1931 -3227,-5251 -1591,-7390 1649,-2143 5035,-2311 7549,-375 2522,1932 3240,5252 1596,7395z"/>
     <path class="fil0" d="M42155 25353c-159,450 -155,1570 -31,2668 0,158 -47,306 -47,469 0,732 34,1453 100,2168 1116,11766 10878,20638 22709,20638 12580,0 22810,-10230 22810,-22806 0,-633 -133,-1224 -190,-1843 93,-734 177,-1517 243,-2432 811,-1437 441,-8973 -2134,-9119 150,-4153 -1543,-4189 -2134,-5291 -582,-1107 -1063,-4194 -2200,-4335 551,2240 330,2498 0,2204 -336,-299 -3016,-5518 -4705,-5591 1693,2209 2645,4231 2355,4046 -296,-185 -9232,-5882 -13679,-6101 -4449,-220 -9998,3455 -9998,3455 0,0 -261,-1836 1395,-3455 -1215,-370 -2935,2990 -3237,3528 -145,251 -2465,-141 -4669,880 -2461,1142 -4864,3770 -5697,5446 -1581,3162 -1211,7319 -1180,7939 31,622 -994,1986 -809,3422 181,1422 1433,3151 1098,4110zm4266 6063c615,-1793 1735,-2533 1689,-3676 -70,-2059 -1376,-1671 -1393,-3748 -9,-1129 203,-2379 536,-3550 736,-1607 1717,-3068 2846,-4407 3025,-923 12126,2060 14115,1339 957,-1180 9302,-1874 13526,-995 1737,366 3986,2886 4964,7058 697,2989 984,6526 1094,9310 -1953,8661 -9675,15158 -18917,15158 -9099,0 -16708,-6184 -18802,-14757 82,-639 177,-1249 342,-1732z"/>
    </g>
   </g>
   <g>
   </g>
   <g>
   </g>
   <g>
   </g>
   <g>
   </g>
   <g>
   </g>
   <g>
   </g>
   <g>
   </g>
   <g>
   </g>
   <g>
   </g>
   <g>
   </g>
   <g>
   </g>
   <g>
   </g>
   <g>
   </g>
   <g>
   </g>
   <g>
   </g>
  </g>
 </g>
</svg>
