<?xml version="1.0" encoding="UTF-8"?>
<!DOCTYPE svg PUBLIC "-//W3C//DTD SVG 1.1//EN" "http://www.w3.org/Graphics/SVG/1.1/DTD/svg11.dtd">
<!-- Creator: CorelDRAW X7 -->
<svg xmlns="http://www.w3.org/2000/svg" xml:space="preserve" width="43px" height="50px" version="1.1" style="shape-rendering:geometricPrecision; text-rendering:geometricPrecision; image-rendering:optimizeQuality; fill-rule:evenodd; clip-rule:evenodd"
viewBox="0 0 67533 77874"
 xmlns:xlink="http://www.w3.org/1999/xlink">
 <defs>
  <style type="text/css">
   <![CDATA[
    .fil0 {fill:#4B4B4D}
   ]]>
  </style>
 </defs>
 <g id="Layer_x0020_1">
  <metadata id="CorelCorpID_0Corel-Layer"/>
  <g id="_2082081811232">
   <path class="fil0" d="M67532 31798c109,-11514 -5737,-16671 -9989,-17539 -1091,-3111 -2699,-5040 -3053,-5440 -671,-903 -6927,-8819 -19743,-8819 -4391,0 -9082,952 -13944,2830 -5804,2241 -19444,9498 -20723,28424 -1438,21260 17085,38012 17874,38715 267,238 605,359 945,359 2,0 4,1 7,0 784,0 1420,-636 1420,-1420 0,-187 -36,-365 -101,-528 -37,-130 -101,-364 -182,-682 3502,4396 7261,6996 10114,8489 2109,1103 4485,1687 6872,1687 2387,0 4764,-584 6872,-1687 3836,-2006 9308,-6012 13592,-13696 2790,-5003 4376,-10876 5259,-16400 2240,-2643 4712,-7164 4780,-14293zm-12520 29309c-3943,7072 -8935,10735 -12428,12562 -1704,892 -3625,1363 -5555,1363 -1930,0 -3851,-471 -5555,-1363 -3493,-1827 -8484,-5490 -12428,-12562 -78,-140 -150,-285 -226,-427 -526,-5416 -151,-12279 4151,-15891 3332,-2796 8939,-4098 14361,-5358 6789,-1577 13769,-3201 17615,-7797 1208,1132 2227,2573 2631,4372 1378,6137 -391,11396 -416,11470 -192,553 -26,1167 419,1547 263,225 592,341 923,341 230,0 462,-56 673,-170 15,-8 50,-28 94,-53 -892,4163 -2238,8341 -4259,11966z"/>
   <g>
   </g>
   <g>
   </g>
   <g>
   </g>
   <g>
   </g>
   <g>
   </g>
   <g>
   </g>
   <g>
   </g>
   <g>
   </g>
   <g>
   </g>
   <g>
   </g>
   <g>
   </g>
   <g>
   </g>
   <g>
   </g>
   <g>
   </g>
   <g>
   </g>
  </g>
 </g>
</svg>
