<?xml version="1.0" encoding="UTF-8"?>
<!DOCTYPE svg PUBLIC "-//W3C//DTD SVG 1.1//EN" "http://www.w3.org/Graphics/SVG/1.1/DTD/svg11.dtd">
<!-- Creator: CorelDRAW X7 -->
<svg xmlns="http://www.w3.org/2000/svg" xml:space="preserve" width="412px" height="370px" version="1.1" style="shape-rendering:geometricPrecision; text-rendering:geometricPrecision; image-rendering:optimizeQuality; fill-rule:evenodd; clip-rule:evenodd"
viewBox="0 0 592244 530996"
 xmlns:xlink="http://www.w3.org/1999/xlink"
 enable-background="new 0 0 0 129">
 <defs>
  <style type="text/css">
   <![CDATA[
    .fil0 {fill:#727376}
   ]]>
  </style>
 </defs>
 <g id="Layer_x0020_1">
  <metadata id="CorelCorpID_0Corel-Layer"/>
  <g id="_2327512228576">
   <g>
    <path class="fil0" d="M587930 140543c-16866,-84836 -77172,-139522 -154852,-139522 -43441,0 -90459,17889 -136455,51618 -46508,-34752 -93524,-52639 -137477,-52639 -77682,0 -138499,55194 -154852,141054 -24531,127255 54173,296418 284663,388409 2555,1023 5111,1533 7666,1533 2555,0 5110,-510 7665,-1533 229979,-94036 308172,-262687 283642,-388920l0 0zm-291307 347013c-202382,-83815 -272398,-229979 -251444,-338835 12265,-64906 57239,-107325 113967,-107325 38330,0 81260,18399 124190,53662 7665,6133 18397,6133 26064,0 42928,-34241 85347,-52128 123678,-52128 56728,0 101189,41396 113966,105791 20954,107833 -48550,253488 -250421,338835z"/>
   </g>
  </g>
 </g>
</svg>
