<?xml version="1.0" encoding="UTF-8"?>
<!DOCTYPE svg PUBLIC "-//W3C//DTD SVG 1.1//EN" "http://www.w3.org/Graphics/SVG/1.1/DTD/svg11.dtd">
<!-- Creator: CorelDRAW X7 -->
<svg xmlns="http://www.w3.org/2000/svg" xml:space="preserve" width="112px" height="100px" version="1.1" style="shape-rendering:geometricPrecision; text-rendering:geometricPrecision; image-rendering:optimizeQuality; fill-rule:evenodd; clip-rule:evenodd"
viewBox="0 0 3419973 3066824"
 xmlns:xlink="http://www.w3.org/1999/xlink"
 enable-background="new 0 0 320 100">
 <defs>
  <style type="text/css">
   <![CDATA[
    .str0 {stroke:#FF8161;stroke-width:2389.21}
    .fil1 {fill:#FF8161}
    .fil0 {fill:#FF8161}
   ]]>
  </style>
 </defs>
 <g id="Layer_x0020_1">
  <metadata id="CorelCorpID_0Corel-Layer"/>
  <g id="_2543957570912">
   <g id="_2327512228576">
    <g>
     <path class="fil0 str0" d="M3394033 812283c-97337,-489598 -445369,-805197 -893666,-805197 -250702,0 -522050,103238 -787497,297893 -268401,-200556 -539734,-303784 -793392,-303784 -448310,0 -799293,318530 -893667,814038 -141572,734399 312639,1710656 1642817,2241548 14746,5904 29496,8848 44242,8848 14746,0 29489,-2944 44235,-8848 1327234,-542694 1778494,-1515991 1636928,-2244498l0 0zm-1681163 2002648c-1167966,-483706 -1572035,-1327231 -1451107,-1955450 70783,-374580 330333,-619384 657715,-619384 221206,0 468960,106182 716711,309689 44235,35393 106170,35393 150417,0 247742,-197609 492548,-300837 713761,-300837 327382,0 583972,238899 657711,610532 120928,622315 -280187,1462905 -1445205,1955450l-3 0z"/>
    </g>
   </g>
  </g>
  <path class="fil1" d="M261763 859481c-120928,628219 283141,1471744 1451110,1955450 1165018,-492545 1566133,-1333135 1445205,-1955450 -73739,-371633 -330329,-610532 -657711,-610532 -221213,0 -466019,103228 -713761,300837 -44247,35393 -106182,35393 -150417,0 -247751,-203507 -495505,-309689 -716711,-309689 -327382,0 -586932,244804 -657715,619384z"/>
 </g>
</svg>
