<?xml version="1.0" encoding="UTF-8"?>
<!DOCTYPE svg PUBLIC "-//W3C//DTD SVG 1.1//EN" "http://www.w3.org/Graphics/SVG/1.1/DTD/svg11.dtd">
<!-- Creator: CorelDRAW X7 -->
<svg xmlns="http://www.w3.org/2000/svg" xml:space="preserve" width="65px" height="50px" version="1.1" style="shape-rendering:geometricPrecision; text-rendering:geometricPrecision; image-rendering:optimizeQuality; fill-rule:evenodd; clip-rule:evenodd"
viewBox="0 0 10886 8164"
 xmlns:xlink="http://www.w3.org/1999/xlink">
 <defs>
  <style type="text/css">
   <![CDATA[
    .fil0 {fill:black}
   ]]>
  </style>
 </defs>
 <g id="Layer_x0020_1">
  <metadata id="CorelCorpID_0Corel-Layer"/>
  <g id="_2504223962160">
   <g>
    <path class="fil0" d="M10886 6804c0,238 -67,459 -175,654l-3437 -3845 3400 -2975c132,210 212,456 212,723l0 5443zm-5443 -2493l4731 -4139c-194,-107 -413,-172 -649,-172l-8164 0c-236,0 -455,65 -648,172l4730 4139zm1319 -251l-1095 959c-64,56 -144,84 -224,84 -80,0 -160,-28 -224,-84l-1095 -959 -3481 3895c209,131 453,209 718,209l8164 0c264,0 509,-78 717,-209l-3480 -3895zm-6550 -3422c-132,210 -212,456 -212,723l0 5443c0,238 67,459 175,654l3436 -3846 -3399 -2974z"/>
   </g>
   <g>
   </g>
   <g>
   </g>
   <g>
   </g>
   <g>
   </g>
   <g>
   </g>
   <g>
   </g>
   <g>
   </g>
   <g>
   </g>
   <g>
   </g>
   <g>
   </g>
   <g>
   </g>
   <g>
   </g>
   <g>
   </g>
   <g>
   </g>
   <g>
   </g>
  </g>
 </g>
</svg>
