<?xml version="1.0" encoding="UTF-8"?>
<!DOCTYPE svg PUBLIC "-//W3C//DTD SVG 1.1//EN" "http://www.w3.org/Graphics/SVG/1.1/DTD/svg11.dtd">
<!-- Creator: CorelDRAW X7 -->
<svg xmlns="http://www.w3.org/2000/svg" xml:space="preserve" width="49px" height="65px" version="1.1" style="shape-rendering:geometricPrecision; text-rendering:geometricPrecision; image-rendering:optimizeQuality; fill-rule:evenodd; clip-rule:evenodd"
viewBox="0 0 5766 7778"
 xmlns:xlink="http://www.w3.org/1999/xlink">
 <defs>
  <style type="text/css">
   <![CDATA[
    .fil0 {fill:#727376}
   ]]>
  </style>
 </defs>
 <g id="Layer_x0020_1">
  <metadata id="CorelCorpID_0Corel-Layer"/>
  <g id="_2326701103936">
   <g>
    <rect class="fil0" x="1210" y="3792" width="645" height="645"/>
    <rect class="fil0" x="1210" y="1210" width="645" height="645"/>
    <rect class="fil0" x="1210" y="2501" width="645" height="645"/>
    <rect class="fil0" x="2501" y="1210" width="645" height="645"/>
    <rect class="fil0" x="2501" y="2501" width="645" height="645"/>
    <path class="fil0" d="M4115 4562c-311,0 -565,254 -565,565 0,312 254,565 565,565 311,0 565,-253 565,-565 0,-311 -254,-565 -565,-565z"/>
    <path class="fil0" d="M4357 3494l0 -3494 -4357 0 0 7181 3640 0 475 597 1295 -1628c233,-294 356,-648 356,-1023 0,-828 -613,-1515 -1409,-1633zm-3873 3203l0 -6213 3389 0 0 3010c-796,118 -1409,805 -1409,1633 0,375 123,729 356,1023l435 547 -2771 0zm4547 -848l-916 1151 -916 -1151c-164,-207 -251,-457 -251,-722 0,-643 524,-1166 1167,-1166 643,0 1167,523 1167,1166 0,265 -87,515 -251,722z"/>
   </g>
   <g>
   </g>
   <g>
   </g>
   <g>
   </g>
   <g>
   </g>
   <g>
   </g>
   <g>
   </g>
   <g>
   </g>
   <g>
   </g>
   <g>
   </g>
   <g>
   </g>
   <g>
   </g>
   <g>
   </g>
   <g>
   </g>
   <g>
   </g>
   <g>
   </g>
  </g>
 </g>
</svg>
