<?xml version="1.0" encoding="UTF-8"?>
<!DOCTYPE svg PUBLIC "-//W3C//DTD SVG 1.1//EN" "http://www.w3.org/Graphics/SVG/1.1/DTD/svg11.dtd">
<!-- Creator: CorelDRAW X7 -->
<svg xmlns="http://www.w3.org/2000/svg" xml:space="preserve" width="1483px" height="1483px" version="1.1" style="shape-rendering:geometricPrecision; text-rendering:geometricPrecision; image-rendering:optimizeQuality; fill-rule:evenodd; clip-rule:evenodd"
viewBox="0 0 5754770 5756384"
 xmlns:xlink="http://www.w3.org/1999/xlink">
 <defs>
  <style type="text/css">
   <![CDATA[
    .fil0 {fill:#727376}
   ]]>
  </style>
 </defs>
 <g id="Layer_x0020_1">
  <metadata id="CorelCorpID_0Corel-Layer"/>
  <g id="_2327483997776">
   <g>
    <path class="fil0" d="M5558829 4162803c-241236,-243615 -482472,-483664 -716576,-715389 -127157,-125969 -275700,-192513 -431375,-192513 -155671,0 -304219,66544 -430183,191321l-32085 32090c-127156,125964 -259061,256682 -386213,387400 -26145,-13072 -52289,-26144 -77247,-39217 -58229,-28518 -114079,-55850 -162802,-86748 -382652,-240048 -734402,-559713 -1074271,-979203 -165181,-203206 -280453,-383839 -361260,-566846 112892,-109326 223410,-221032 331550,-330363 27331,-27331 55850,-55850 83186,-83182 265002,-266193 263815,-610815 -1191,-878196 -80808,-81995 -163990,-163990 -243611,-243610 -35650,-35651 -71301,-71302 -106952,-106952 -38029,-38030 -74867,-74868 -112892,-112893 -80808,-81999 -165182,-166368 -249555,-248368 -127157,-124777 -276887,-190134 -431375,-190134 -154484,0 -304219,65357 -430183,190134 -60604,60608 -122399,121212 -180628,180633 -85561,86748 -174688,175875 -263815,261435 -166368,158050 -259061,357695 -276887,594178 -27331,371954 76055,708257 168748,960191 211525,569220 534756,1108734 988710,1649435 565654,672607 1246584,1204989 2023763,1584075 427809,207959 795010,313724 1152704,333928 26145,1188 52289,2375 77242,2375 301844,0 550207,-106953 737967,-316104 80808,-90314 167561,-174687 259062,-263814 46349,-45157 93880,-91501 141416,-139037 266193,-267381 267380,-609624 4753,-874626zm-230538 648841c-45162,45157 -91506,90314 -136663,135471 -91501,89127 -186573,181819 -274508,280453 -139037,155675 -314916,221031 -558527,207959 -314916,-17825 -641713,-112892 -1030305,-301839 -736780,-358887 -1383242,-863937 -1919190,-1500893 -430183,-512182 -735589,-1019607 -934047,-1554368 -122398,-327984 -167555,-582292 -149730,-823528 11881,-155676 70110,-282827 178254,-385027 91501,-91501 181815,-183006 269754,-270946 58230,-58225 117646,-118833 177062,-178249 45162,-45162 117651,-98633 205586,-98633 87939,0 160428,53476 206777,98633 81995,80808 166368,165181 245989,245989 38025,38025 74863,76055 112892,112892 35651,35651 71302,71302 106953,106953 79620,79620 161615,161615 242423,242423 142603,143790 143790,282827 1187,425430 -27332,28519 -55851,55855 -83182,84374 -115271,116458 -235296,237670 -355320,352941 -59417,57042 -117646,154488 -59417,294712 92693,222224 226977,438502 421864,678551 362448,445630 740347,789065 1152704,1048126 64170,40404 129531,72489 192513,103386 38030,17826 72489,35651 106953,54664 42782,23770 85560,34463 128343,34463l0 0c67736,0 130718,-29710 186568,-86748 134289,-139037 274513,-276886 408797,-411170l32084 -32090c45157,-45157 117646,-98633 204399,-98633 86748,0 159236,53476 205585,98633 232917,231730 474153,471779 714202,714202 139037,136663 137845,282832 0,421869z"/>
   </g>
   <g>
   </g>
   <g>
   </g>
   <g>
   </g>
   <g>
   </g>
   <g>
   </g>
   <g>
   </g>
   <g>
   </g>
   <g>
   </g>
   <g>
   </g>
   <g>
   </g>
   <g>
   </g>
   <g>
   </g>
   <g>
   </g>
   <g>
   </g>
   <g>
   </g>
  </g>
 </g>
</svg>
