<?xml version="1.0" encoding="UTF-8"?>
<!DOCTYPE svg PUBLIC "-//W3C//DTD SVG 1.1//EN" "http://www.w3.org/Graphics/SVG/1.1/DTD/svg11.dtd">
<!-- Creator: CorelDRAW X7 -->
<svg xmlns="http://www.w3.org/2000/svg" xml:space="preserve" width="102px" height="36px" version="1.1" style="shape-rendering:geometricPrecision; text-rendering:geometricPrecision; image-rendering:optimizeQuality; fill-rule:evenodd; clip-rule:evenodd"
viewBox="0 0 6984 2472"
 xmlns:xlink="http://www.w3.org/1999/xlink">
 <defs>
  <style type="text/css">
   <![CDATA[
    .str0 {stroke:#4B4B4D;stroke-width:143.021}
    .fil1 {fill:none;fill-rule:nonzero}
    .fil0 {fill:#FECBAE;fill-rule:nonzero}
   ]]>
  </style>
 </defs>
 <g id="Layer_x0020_1">
  <metadata id="CorelCorpID_0Corel-Layer"/>
  <path class="fil0" d="M635 639c1,-5 0,-7 -3,-7l-6 0c-7,0 -17,2 -21,4 -111,49 -210,95 -453,95 -26,0 -37,12 -37,33l0 84c-1,17 4,29 29,31 137,15 147,153 146,286l0 805 0 47c3,134 -59,235 -180,235 -26,0 -38,13 -38,37l0 75c0,24 12,37 37,37l708 0c24,0 36,-13 36,-37l0 -75c0,-24 -12,-37 -36,-37 -121,0 -183,-101 -183,-235l0 -198c88,76 197,116 322,116 299,0 578,-191 578,-650 0,-480 -326,-653 -549,-653 -254,0 -351,161 -377,227l27 -220zm0 374c0,0 55,-163 238,-163 203,0 342,197 342,515 0,205 -65,409 -304,409 -165,0 -258,-155 -276,-309l0 -452z"/>
  <path id="1" class="fil0" d="M2215 592c1,-3 0,-4 -3,-4l-6 0c-3,0 -7,4 -11,6 -66,48 -254,144 -490,181 -24,4 -36,12 -36,33l0 84c-1,17 5,29 29,32 137,15 147,152 147,285l0 312c0,135 -59,236 -180,236l-6 0c-25,0 -38,13 -38,37l0 74c0,24 13,37 38,37l720 0c24,0 38,-13 38,-37l0 -74c0,-24 -14,-37 -38,-37l-4 0c-121,0 -182,-101 -182,-236l0 -457c37,-90 135,-214 248,-214 68,0 117,38 117,128 0,34 -3,77 -22,124 -3,8 -5,15 -5,22 0,14 7,24 23,24 5,0 13,-2 22,-6l231 -95c61,-25 65,-83 65,-158 0,-169 -125,-255 -280,-255 -175,0 -345,101 -435,291l58 -333z"/>
  <path id="2" class="fil0" d="M4014 1148c16,-7 20,-17 20,-31 0,-187 -181,-478 -509,-478 -293,0 -590,176 -590,636 0,359 253,660 665,660 251,0 404,-116 497,-289 7,-13 16,-30 16,-43 0,-8 -4,-15 -11,-19 -79,-46 -83,-48 -98,-48 -6,0 -16,3 -22,10 -87,126 -210,183 -315,183 -193,0 -316,-129 -372,-267l719 -314zm-750 160c-19,-59 -23,-141 -23,-189 0,-161 87,-284 223,-284 114,0 199,115 199,272l-399 201z"/>
  <path id="3" class="fil0" d="M5004 1664c-7,-13 -17,-19 -29,-19 -6,0 -14,2 -22,7l-3 2c-50,32 -119,70 -176,70 -58,0 -103,-40 -103,-168l0 -709 331 0c24,0 37,-13 37,-37l0 -107c0,-24 -13,-37 -37,-37l-332 0 0 -416c0,-4 -3,-5 -6,-5l-3 0c-4,0 -8,3 -11,6 -102,87 -233,165 -305,205 -17,9 -22,25 -22,45l0 165 -180 0c-25,0 -37,13 -37,37l0 75c0,24 12,37 37,37 180,0 180,149 180,282l0 459c0,293 134,381 287,381 123,0 259,-57 348,-112l74 -47c13,-8 19,-18 19,-29 0,-7 -2,-14 -7,-22l-40 -63z"/>
  <path id="4" class="fil0" d="M5536 443c45,0 81,-18 124,-62 44,-43 62,-79 62,-124 0,-44 -18,-80 -62,-123 -43,-44 -79,-62 -124,-62 -44,0 -80,18 -124,62 -43,43 -61,79 -61,123 0,45 18,81 61,124 44,44 80,62 124,62zm356 1314c-121,0 -183,-101 -183,-236l0 -928c-2,-4 -2,-4 -5,-4l-6 0c-4,0 -8,2 -11,6 -67,70 -195,165 -456,252 -23,8 -36,12 -36,32l0 84c-1,18 5,30 29,32 137,15 147,153 147,263l0 263c2,135 -59,236 -180,236l-4 0c-24,0 -38,13 -38,37l0 74c0,24 19,37 43,37l701 0c24,0 42,-13 42,-37l0 -74c0,-24 -13,-37 -37,-37l-6 0z"/>
  <path id="5" class="fil0" d="M6865 1664c-7,-13 -17,-19 -29,-19 -7,0 -14,2 -22,7l-3 2c-50,32 -120,70 -176,70 -58,0 -103,-40 -103,-168l0 -709 331 0c24,0 37,-13 37,-37l0 -107c0,-24 -13,-37 -37,-37l-332 0 0 -416c0,-4 -3,-5 -6,-5l-3 0c-4,0 -8,3 -11,6 -102,87 -233,165 -305,205 -17,9 -23,25 -23,45l0 165 -179 0c-25,0 -37,13 -37,37l0 75c0,24 12,37 37,37 179,0 179,149 179,282l0 459c0,293 135,381 288,381 123,0 259,-57 348,-112l74 -47c13,-8 19,-18 19,-29 0,-7 -2,-14 -7,-22l-40 -63z"/>
  <path id="6" class="fil1 str0" d="M635 639c1,-5 0,-7 -3,-7l-6 0c-7,0 -17,2 -21,4 -111,49 -210,95 -453,95 -26,0 -37,12 -37,33l0 84c-1,17 4,29 29,31 137,15 147,153 146,286l0 805 0 47c3,134 -59,235 -180,235 -26,0 -38,13 -38,37l0 75c0,24 12,37 37,37l708 0c24,0 36,-13 36,-37l0 -75c0,-24 -12,-37 -36,-37 -121,0 -183,-101 -183,-235l0 -198c88,76 197,116 322,116 299,0 578,-191 578,-650 0,-480 -326,-653 -549,-653 -254,0 -351,161 -377,227l27 -220zm0 374c0,0 55,-163 238,-163 203,0 342,197 342,515 0,205 -65,409 -304,409 -165,0 -258,-155 -276,-309l0 -452z"/>
  <path id="7" class="fil1 str0" d="M2215 592c1,-3 0,-4 -3,-4l-6 0c-3,0 -7,4 -11,6 -66,48 -254,144 -490,181 -24,4 -36,12 -36,33l0 84c-1,17 5,29 29,32 137,15 147,152 147,285l0 312c0,135 -59,236 -180,236l-6 0c-25,0 -38,13 -38,37l0 74c0,24 13,37 38,37l720 0c24,0 38,-13 38,-37l0 -74c0,-24 -14,-37 -38,-37l-4 0c-121,0 -182,-101 -182,-236l0 -457c37,-90 135,-214 248,-214 68,0 117,38 117,128 0,34 -3,77 -22,124 -3,8 -5,15 -5,22 0,14 7,24 23,24 5,0 13,-2 22,-6l231 -95c61,-25 65,-83 65,-158 0,-169 -125,-255 -280,-255 -175,0 -345,101 -435,291l58 -333z"/>
  <path id="8" class="fil1 str0" d="M4014 1148c16,-7 20,-17 20,-31 0,-187 -181,-478 -509,-478 -293,0 -590,176 -590,636 0,359 253,660 665,660 251,0 404,-116 497,-289 7,-13 16,-30 16,-43 0,-8 -4,-15 -11,-19 -79,-46 -83,-48 -98,-48 -6,0 -16,3 -22,10 -87,126 -210,183 -315,183 -193,0 -316,-129 -372,-267l719 -314zm-750 160c-19,-59 -23,-141 -23,-189 0,-161 87,-284 223,-284 114,0 199,115 199,272l-399 201z"/>
  <path id="9" class="fil1 str0" d="M5004 1664c-7,-13 -17,-19 -29,-19 -6,0 -14,2 -22,7l-3 2c-50,32 -119,70 -176,70 -58,0 -103,-40 -103,-168l0 -709 331 0c24,0 37,-13 37,-37l0 -107c0,-24 -13,-37 -37,-37l-332 0 0 -416c0,-4 -3,-5 -6,-5l-3 0c-4,0 -8,3 -11,6 -102,87 -233,165 -305,205 -17,9 -22,25 -22,45l0 165 -180 0c-25,0 -37,13 -37,37l0 75c0,24 12,37 37,37 180,0 180,149 180,282l0 459c0,293 134,381 287,381 123,0 259,-57 348,-112l74 -47c13,-8 19,-18 19,-29 0,-7 -2,-14 -7,-22l-40 -63z"/>
  <path id="10" class="fil1 str0" d="M5536 443c45,0 81,-18 124,-62 44,-43 62,-79 62,-124 0,-44 -18,-80 -62,-123 -43,-44 -79,-62 -124,-62 -44,0 -80,18 -124,62 -43,43 -61,79 -61,123 0,45 18,81 61,124 44,44 80,62 124,62zm356 1314c-121,0 -183,-101 -183,-236l0 -928c-2,-4 -2,-4 -5,-4l-6 0c-4,0 -8,2 -11,6 -67,70 -195,165 -456,252 -23,8 -36,12 -36,32l0 84c-1,18 5,30 29,32 137,15 147,153 147,263l0 263c2,135 -59,236 -180,236l-4 0c-24,0 -38,13 -38,37l0 74c0,24 19,37 43,37l701 0c24,0 42,-13 42,-37l0 -74c0,-24 -13,-37 -37,-37l-6 0z"/>
  <path id="11" class="fil1 str0" d="M6865 1664c-7,-13 -17,-19 -29,-19 -7,0 -14,2 -22,7l-3 2c-50,32 -120,70 -176,70 -58,0 -103,-40 -103,-168l0 -709 331 0c24,0 37,-13 37,-37l0 -107c0,-24 -13,-37 -37,-37l-332 0 0 -416c0,-4 -3,-5 -6,-5l-3 0c-4,0 -8,3 -11,6 -102,87 -233,165 -305,205 -17,9 -23,25 -23,45l0 165 -179 0c-25,0 -37,13 -37,37l0 75c0,24 12,37 37,37 179,0 179,149 179,282l0 459c0,293 135,381 288,381 123,0 259,-57 348,-112l74 -47c13,-8 19,-18 19,-29 0,-7 -2,-14 -7,-22l-40 -63z"/>
 </g>
</svg>
