<?xml version="1.0" encoding="UTF-8"?>
<!DOCTYPE svg PUBLIC "-//W3C//DTD SVG 1.1//EN" "http://www.w3.org/Graphics/SVG/1.1/DTD/svg11.dtd">
<!-- Creator: CorelDRAW X7 -->
<svg xmlns="http://www.w3.org/2000/svg" xml:space="preserve" width="101px" height="35px" version="1.1" style="shape-rendering:geometricPrecision; text-rendering:geometricPrecision; image-rendering:optimizeQuality; fill-rule:evenodd; clip-rule:evenodd"
viewBox="0 0 6859 2391"
 xmlns:xlink="http://www.w3.org/1999/xlink">
 <defs>
  <style type="text/css">
   <![CDATA[
    .str0 {stroke:#4B4B4D;stroke-width:84.9869}
    .fil1 {fill:none;fill-rule:nonzero}
    .fil0 {fill:#FECBAE;fill-rule:nonzero}
   ]]>
  </style>
 </defs>
 <g id="Layer_x0020_1">
  <metadata id="CorelCorpID_0Corel-Layer"/>
  <path class="fil0" d="M601 604c0,-5 -1,-7 -4,-7l-6 0c-7,0 -16,2 -20,5 -110,48 -209,94 -449,94 -25,0 -37,11 -37,32l0 83c0,17 5,29 29,31 136,15 146,151 145,283l0 797 0 47c2,132 -58,233 -178,233 -26,0 -39,12 -39,37l0 73c0,25 13,37 37,37l701 0c24,0 37,-12 37,-37l0 -73c0,-25 -13,-37 -37,-37 -120,0 -180,-101 -180,-233l0 -196c87,75 195,115 318,115 296,0 573,-189 573,-644 0,-475 -323,-647 -544,-647 -251,0 -347,160 -374,225l28 -218zm-1 370c0,0 55,-161 236,-161 201,0 339,196 339,510 0,204 -64,405 -302,405 -162,0 -255,-153 -273,-306l0 -448z"/>
  <path id="1" class="fil0" d="M2165 558c1,-3 0,-4 -3,-4l-6 0c-3,0 -7,3 -11,6 -66,48 -251,143 -486,179 -23,4 -35,12 -35,33l0 83c0,17 5,29 29,32 135,14 145,150 145,282l0 309c0,133 -58,233 -178,233l-6 0c-24,0 -37,13 -37,37l0 73c0,24 13,37 37,37l714 0c23,0 36,-13 36,-37l0 -73c0,-24 -13,-37 -36,-37l-5 0c-119,0 -180,-100 -180,-233l0 -453c37,-89 134,-212 246,-212 68,0 116,38 116,127 0,34 -3,76 -23,123 -3,8 -4,15 -4,22 0,13 7,23 22,23 6,0 13,-1 22,-5l229 -95c60,-25 65,-82 65,-156 0,-167 -124,-253 -278,-253 -174,0 -342,100 -431,288l58 -329z"/>
  <path id="2" class="fil0" d="M3946 1109c16,-7 20,-17 20,-31 0,-185 -180,-474 -504,-474 -290,0 -584,175 -584,630 0,355 251,654 658,654 249,0 400,-115 492,-286 7,-14 16,-30 16,-43 0,-8 -3,-14 -11,-19 -78,-46 -82,-48 -97,-48 -6,0 -16,3 -21,11 -86,124 -208,181 -312,181 -191,0 -313,-128 -369,-264l712 -311zm-742 157c-20,-58 -23,-139 -23,-187 0,-159 86,-281 221,-281 112,0 197,114 197,270l-395 198z"/>
  <path id="3" class="fil0" d="M4927 1619c-8,-12 -18,-18 -29,-18 -7,0 -14,2 -22,7l-3 2c-50,31 -118,69 -174,69 -57,0 -102,-40 -102,-166l0 -702 328 0c24,0 36,-14 36,-37l0 -106c0,-24 -12,-37 -36,-37l-329 0 0 -412c0,-4 -3,-4 -6,-4l-3 0c-4,0 -8,3 -11,5 -101,86 -231,164 -302,203 -17,9 -22,25 -22,44l0 164 -178 0c-24,0 -37,13 -37,37l0 74c0,24 13,37 37,37 178,0 178,147 178,279l0 454c0,290 133,378 284,378 123,0 257,-57 345,-111l73 -47c13,-8 20,-17 20,-28 0,-7 -3,-15 -8,-22l-39 -63z"/>
  <path id="4" class="fil0" d="M5454 411c43,0 79,-18 122,-62 44,-43 62,-79 62,-122 0,-44 -18,-80 -62,-123 -43,-44 -79,-62 -122,-62 -44,0 -80,18 -123,62 -43,43 -61,79 -61,123 0,43 18,79 61,122 43,44 79,62 123,62zm351 1300c-119,0 -180,-100 -180,-233l0 -919c-2,-4 -2,-4 -6,-4l-5 0c-4,0 -8,2 -11,6 -66,69 -193,163 -452,249 -23,8 -35,12 -35,32l0 83c-1,18 4,29 29,32 135,15 145,151 145,260l0 261c2,133 -58,233 -178,233l-5 0c-23,0 -36,13 -36,37l0 73c0,24 18,37 41,37l695 0c23,0 41,-13 41,-37l0 -73c0,-24 -13,-37 -36,-37l-7 0z"/>
  <path id="5" class="fil0" d="M6770 1619c-8,-12 -18,-18 -29,-18 -7,0 -14,2 -22,7l-3 2c-50,31 -119,69 -174,69 -58,0 -102,-40 -102,-166l0 -702 327 0c24,0 37,-14 37,-37l0 -106c0,-24 -13,-37 -37,-37l-328 0 0 -412c-1,-4 -3,-4 -6,-4l-4 0c-3,0 -7,3 -11,5 -100,86 -230,164 -301,203 -18,9 -23,25 -23,44l0 164 -177 0c-25,0 -37,13 -37,37l0 74c0,24 12,37 37,37 177,0 177,147 177,279l0 454c0,290 133,378 285,378 122,0 257,-57 344,-111l74 -47c13,-8 19,-17 19,-28 0,-7 -2,-15 -7,-22l-39 -63z"/>
  <path id="6" class="fil1 str0" d="M601 604c0,-5 -1,-7 -4,-7l-6 0c-7,0 -16,2 -20,5 -110,48 -209,94 -449,94 -25,0 -37,11 -37,32l0 83c0,17 5,29 29,31 136,15 146,151 145,283l0 797 0 47c2,132 -58,233 -178,233 -26,0 -39,12 -39,37l0 73c0,25 13,37 37,37l701 0c24,0 37,-12 37,-37l0 -73c0,-25 -13,-37 -37,-37 -120,0 -180,-101 -180,-233l0 -196c87,75 195,115 318,115 296,0 573,-189 573,-644 0,-475 -323,-647 -544,-647 -251,0 -347,160 -374,225l28 -218zm-1 370c0,0 55,-161 236,-161 201,0 339,196 339,510 0,204 -64,405 -302,405 -162,0 -255,-153 -273,-306l0 -448z"/>
  <path id="7" class="fil1 str0" d="M2165 558c1,-3 0,-4 -3,-4l-6 0c-3,0 -7,3 -11,6 -66,48 -251,143 -486,179 -23,4 -35,12 -35,33l0 83c0,17 5,29 29,32 135,14 145,150 145,282l0 309c0,133 -58,233 -178,233l-6 0c-24,0 -37,13 -37,37l0 73c0,24 13,37 37,37l714 0c23,0 36,-13 36,-37l0 -73c0,-24 -13,-37 -36,-37l-5 0c-119,0 -180,-100 -180,-233l0 -453c37,-89 134,-212 246,-212 68,0 116,38 116,127 0,34 -3,76 -23,123 -3,8 -4,15 -4,22 0,13 7,23 22,23 6,0 13,-1 22,-5l229 -95c60,-25 65,-82 65,-156 0,-167 -124,-253 -278,-253 -174,0 -342,100 -431,288l58 -329z"/>
  <path id="8" class="fil1 str0" d="M3946 1109c16,-7 20,-17 20,-31 0,-185 -180,-474 -504,-474 -290,0 -584,175 -584,630 0,355 251,654 658,654 249,0 400,-115 492,-286 7,-14 16,-30 16,-43 0,-8 -3,-14 -11,-19 -78,-46 -82,-48 -97,-48 -6,0 -16,3 -21,11 -86,124 -208,181 -312,181 -191,0 -313,-128 -369,-264l712 -311zm-742 157c-20,-58 -23,-139 -23,-187 0,-159 86,-281 221,-281 112,0 197,114 197,270l-395 198z"/>
  <path id="9" class="fil1 str0" d="M4927 1619c-8,-12 -18,-18 -29,-18 -7,0 -14,2 -22,7l-3 2c-50,31 -118,69 -174,69 -57,0 -102,-40 -102,-166l0 -702 328 0c24,0 36,-14 36,-37l0 -106c0,-24 -12,-37 -36,-37l-329 0 0 -412c0,-4 -3,-4 -6,-4l-3 0c-4,0 -8,3 -11,5 -101,86 -231,164 -302,203 -17,9 -22,25 -22,44l0 164 -178 0c-24,0 -37,13 -37,37l0 74c0,24 13,37 37,37 178,0 178,147 178,279l0 454c0,290 133,378 284,378 123,0 257,-57 345,-111l73 -47c13,-8 20,-17 20,-28 0,-7 -3,-15 -8,-22l-39 -63z"/>
  <path id="10" class="fil1 str0" d="M5454 411c43,0 79,-18 122,-62 44,-43 62,-79 62,-122 0,-44 -18,-80 -62,-123 -43,-44 -79,-62 -122,-62 -44,0 -80,18 -123,62 -43,43 -61,79 -61,123 0,43 18,79 61,122 43,44 79,62 123,62zm351 1300c-119,0 -180,-100 -180,-233l0 -919c-2,-4 -2,-4 -6,-4l-5 0c-4,0 -8,2 -11,6 -66,69 -193,163 -452,249 -23,8 -35,12 -35,32l0 83c-1,18 4,29 29,32 135,15 145,151 145,260l0 261c2,133 -58,233 -178,233l-5 0c-23,0 -36,13 -36,37l0 73c0,24 18,37 41,37l695 0c23,0 41,-13 41,-37l0 -73c0,-24 -13,-37 -36,-37l-7 0z"/>
  <path id="11" class="fil1 str0" d="M6770 1619c-8,-12 -18,-18 -29,-18 -7,0 -14,2 -22,7l-3 2c-50,31 -119,69 -174,69 -58,0 -102,-40 -102,-166l0 -702 327 0c24,0 37,-14 37,-37l0 -106c0,-24 -13,-37 -37,-37l-328 0 0 -412c-1,-4 -3,-4 -6,-4l-4 0c-3,0 -7,3 -11,5 -100,86 -230,164 -301,203 -18,9 -23,25 -23,44l0 164 -177 0c-25,0 -37,13 -37,37l0 74c0,24 12,37 37,37 177,0 177,147 177,279l0 454c0,290 133,378 285,378 122,0 257,-57 344,-111l74 -47c13,-8 19,-17 19,-28 0,-7 -2,-15 -7,-22l-39 -63z"/>
 </g>
</svg>
