<?xml version="1.0" encoding="UTF-8"?>
<!DOCTYPE svg PUBLIC "-//W3C//DTD SVG 1.1//EN" "http://www.w3.org/Graphics/SVG/1.1/DTD/svg11.dtd">
<!-- Creator: CorelDRAW X7 -->
<svg xmlns="http://www.w3.org/2000/svg" xml:space="preserve" width="94px" height="32px" version="1.1" style="shape-rendering:geometricPrecision; text-rendering:geometricPrecision; image-rendering:optimizeQuality; fill-rule:evenodd; clip-rule:evenodd"
viewBox="0 0 55206 18797"
 xmlns:xlink="http://www.w3.org/1999/xlink">
 <defs>
  <style type="text/css">
   <![CDATA[
    .fil0 {fill:#4B4B4D;fill-rule:nonzero}
   ]]>
  </style>
 </defs>
 <g id="Layer_x0020_1">
  <metadata id="CorelCorpID_0Corel-Layer"/>
  <path class="fil0" d="M4549 4579c4,-40 -3,-60 -26,-60l-50 0c-57,0 -134,20 -167,40 -893,390 -1700,764 -3659,764 -204,0 -297,96 -297,263l0 676c-7,137 37,237 237,257 1103,120 1183,1230 1179,2303l0 6496 -3 380c20,1080 -473,1900 -1450,1900 -210,0 -313,100 -313,300l0 600c0,199 103,299 300,299l5713 0c193,0 296,-100 296,-299l0 -600c0,-200 -103,-300 -296,-300 -977,0 -1470,-820 -1470,-1900l0 -1593c706,610 1586,933 2593,933 2413,0 4666,-1540 4666,-5246 0,-3870 -2630,-5273 -4430,-5273 -2049,0 -2829,1304 -3046,1837l223 -1777zm-3 3017c0,0 443,-1317 1923,-1317 1637,0 2760,1597 2760,4160 0,1656 -523,3299 -2457,3299 -1326,0 -2079,-1250 -2226,-2493l0 -3649z"/>
  <path id="1" class="fil0" d="M17301 4203c3,-30 0,-34 -27,-34l-46 0c-30,0 -60,27 -90,50 -537,387 -2050,1160 -3960,1460 -193,30 -286,97 -286,263l0 680c-7,137 36,237 233,257 1103,120 1183,1230 1183,2303l0 2516c0,1087 -473,1900 -1450,1900l-50 0c-196,0 -300,107 -300,300l0 600c0,193 104,300 300,300l5816 0c193,0 300,-107 300,-300l0 -600c0,-193 -107,-300 -300,-300l-37 0c-973,0 -1466,-813 -1466,-1900l0 -3689c297,-730 1090,-1730 2003,-1730 550,0 943,310 943,1033 0,277 -23,620 -183,1007 -23,60 -37,120 -37,173 0,113 60,193 184,193 46,0 106,-13 176,-43l1870 -770c487,-203 523,-670 523,-1273 0,-1363 -1010,-2060 -2259,-2060 -1417,0 -2787,814 -3513,2347l473 -2683z"/>
  <path id="2" class="fil0" d="M31816 8689c130,-57 163,-137 163,-250 0,-1510 -1466,-3860 -4113,-3860 -2359,0 -4759,1420 -4759,5130 0,2896 2046,5329 5366,5329 2026,0 3263,-937 4009,-2330 60,-110 130,-243 130,-350 0,-63 -26,-116 -86,-153 -637,-373 -674,-390 -794,-390 -50,0 -130,23 -173,87 -700,1013 -1696,1476 -2543,1476 -1556,0 -2550,-1046 -3006,-2153l5806 -2536zm-6049 1286c-160,-473 -187,-1133 -187,-1526 0,-1297 697,-2290 1796,-2290 920,0 1610,927 1610,2197l-3219 1619z"/>
  <path id="3" class="fil0" d="M39808 12852c-63,-104 -143,-154 -233,-154 -57,0 -117,17 -180,57l-24 17c-410,256 -966,566 -1423,566 -466,0 -830,-323 -830,-1356l0 -5723 2670 0c197,0 300,-107 300,-300l0 -860c0,-193 -103,-300 -300,-300l-2676 0 0 -3363c-4,-30 -24,-33 -50,-33l-27 0c-30,0 -60,23 -90,47 -820,696 -1880,1333 -2456,1650 -144,76 -184,203 -184,363l0 1336 -1449 0c-197,0 -300,107 -300,300l0 600c0,194 103,300 300,300 1449,0 1449,1200 1449,2273l0 3706c0,2363 1084,3080 2320,3080 997,0 2093,-463 2806,-907l600 -380c104,-63 157,-143 157,-233 0,-57 -20,-116 -60,-177l-320 -509z"/>
  <path id="4" class="fil0" d="M44101 3000c356,0 646,-147 1000,-500 353,-354 500,-644 500,-1000 0,-357 -147,-647 -500,-1000 -354,-353 -644,-500 -1000,-500 -357,0 -647,147 -1000,500 -353,353 -500,643 -500,1000 0,356 147,646 500,1000 353,353 643,500 1000,500zm2866 10598c-977,0 -1470,-813 -1470,-1900l0 -7492c-20,-30 -20,-33 -46,-33l-47 0c-30,3 -63,20 -90,50 -537,566 -1570,1333 -3680,2033 -186,63 -286,96 -286,263l0 677c-7,140 36,236 233,260 1103,120 1183,1229 1183,2119l0 2123c20,1087 -473,1900 -1449,1900l-37 0c-194,0 -300,107 -300,300l0 600c0,193 146,300 340,300l5659 0c193,0 340,-107 340,-300l0 -600c0,-193 -107,-300 -300,-300l-50 0z"/>
  <path id="5" class="fil0" d="M54826 12852c-63,-104 -143,-154 -233,-154 -57,0 -117,17 -180,57l-24 17c-410,256 -966,566 -1423,566 -466,0 -830,-323 -830,-1356l0 -5723 2670 0c197,0 300,-107 300,-300l0 -860c0,-193 -103,-300 -300,-300l-2676 0 0 -3363c-4,-30 -24,-33 -50,-33l-27 0c-30,0 -60,23 -90,47 -820,696 -1880,1333 -2456,1650 -144,76 -184,203 -184,363l0 1336 -1449 0c-197,0 -300,107 -300,300l0 600c0,194 103,300 300,300 1449,0 1449,1200 1449,2273l0 3706c0,2363 1084,3080 2320,3080 997,0 2093,-463 2806,-907l600 -380c104,-63 157,-143 157,-233 0,-57 -20,-116 -60,-177l-320 -509z"/>
 </g>
</svg>
