<?xml version="1.0" encoding="UTF-8"?>
<!DOCTYPE svg PUBLIC "-//W3C//DTD SVG 1.1//EN" "http://www.w3.org/Graphics/SVG/1.1/DTD/svg11.dtd">
<!-- Creator: CorelDRAW X7 -->
<svg xmlns="http://www.w3.org/2000/svg" xml:space="preserve" width="100px" height="100px" version="1.1" style="shape-rendering:geometricPrecision; text-rendering:geometricPrecision; image-rendering:optimizeQuality; fill-rule:evenodd; clip-rule:evenodd"
viewBox="0 0 1668121 1667040"
 xmlns:xlink="http://www.w3.org/1999/xlink">
 <defs>
  <style type="text/css">
   <![CDATA[
    .fil0 {fill:#010002}
   ]]>
  </style>
 </defs>
 <g id="Layer_x0020_1">
  <metadata id="CorelCorpID_0Corel-Layer"/>
  <g id="_3012898712976">
   <g>
    <g>
     <path class="fil0" d="M1667330 1315623c3533,27076 -4719,50619 -24729,70629l-234863 233096c-10598,11771 -24426,21790 -41496,30015 -17071,8252 -33852,13551 -50329,15898 -1173,0 -4706,303 -10598,896 -5879,580 -13538,883 -22950,883 -22370,0 -58581,-3823 -108619,-11481 -50026,-7659 -111243,-26496 -183638,-56511 -72421,-30016 -154532,-75058 -246357,-135089 -91825,-60030 -189543,-142457 -293140,-247227 -82413,-81240 -150696,-158934 -204847,-233109 -54165,-74162 -97718,-142747 -130686,-205731 -32968,-62983 -57684,-120074 -74161,-171286 -16491,-51212 -27669,-95371 -33561,-132452 -5880,-37081 -8239,-66226 -7066,-87409 1186,-21197 1766,-32968 1766,-35315 2360,-16490 7659,-33258 15898,-50328 8239,-17071 18244,-30912 30015,-41510l234876 -234863c16477,-16477 35314,-24729 56511,-24729 15304,0 28842,4416 40613,13248 11772,8832 21777,19720 30016,32678l188963 358483c10585,18837 13537,39427 8818,61796 -4706,22370 -14711,41207 -30015,56511l-86526 86540c-2360,2346 -4416,6169 -6183,11468 -1766,5299 -2649,9715 -2649,13248 4706,24729 15304,52978 31782,84760 14131,28262 35907,62693 65342,103307 29436,40626 71222,87409 125387,140387 52978,54165 100064,96242 141271,126270 41193,30015 75638,52095 103307,66226 27668,14131 48852,22660 63576,25599l22067 4416c2346,0 6182,-883 11481,-2649 5299,-1767 9122,-3823 11482,-6183l100644 -102423c21209,-18837 45925,-28249 74174,-28249 20024,0 35908,3519 47679,10585l1767 0 340819 201314c24729,15318 39440,34735 44159,58291z"/>
    </g>
   </g>
   <g>
   </g>
   <g>
   </g>
   <g>
   </g>
   <g>
   </g>
   <g>
   </g>
   <g>
   </g>
   <g>
   </g>
   <g>
   </g>
   <g>
   </g>
   <g>
   </g>
   <g>
   </g>
   <g>
   </g>
   <g>
   </g>
   <g>
   </g>
   <g>
   </g>
  </g>
 </g>
</svg>
