<?xml version="1.0" encoding="UTF-8"?>
<!DOCTYPE svg PUBLIC "-//W3C//DTD SVG 1.1//EN" "http://www.w3.org/Graphics/SVG/1.1/DTD/svg11.dtd">
<!-- Creator: CorelDRAW X7 -->
<svg xmlns="http://www.w3.org/2000/svg" xml:space="preserve" width="101px" height="100px" version="1.1" style="shape-rendering:geometricPrecision; text-rendering:geometricPrecision; image-rendering:optimizeQuality; fill-rule:evenodd; clip-rule:evenodd"
viewBox="0 0 1208976 1197634"
 xmlns:xlink="http://www.w3.org/1999/xlink">
 <defs>
  <style type="text/css">
   <![CDATA[
    .fil0 {fill:black}
   ]]>
  </style>
 </defs>
 <g id="Layer_x0020_1">
  <metadata id="CorelCorpID_0Corel-Layer"/>
  <g id="_3012898719344">
   <g>
    <g>
     <path class="fil0" d="M604484 634537c149699,0 271066,-142051 271066,-317273 0,-242977 -121358,-317264 -271066,-317264 -149700,0 -271058,74278 -271058,317264 0,175222 121358,317273 271058,317273z"/>
     <path class="fil0" d="M1203048 1101510l-136754 -308066c-6252,-14090 -17243,-25783 -30918,-32909l-212239 -110476c-4676,-2432 -10342,-1964 -14549,1226 -60026,45404 -130610,69395 -204104,69395 -73503,0 -144070,-23991 -204104,-69395 -4217,-3190 -9883,-3658 -14559,-1226l-212221 110476c-13684,7126 -24666,18810 -30927,32909l-136754 308066c-9423,21243 -7496,45540 5171,65017 12666,19477 34089,31107 57323,31107l1072141 0c23234,0 44666,-11630 57323,-31107 12667,-19477 14604,-43783 5171,-65017z"/>
    </g>
   </g>
   <g>
   </g>
   <g>
   </g>
   <g>
   </g>
   <g>
   </g>
   <g>
   </g>
   <g>
   </g>
   <g>
   </g>
   <g>
   </g>
   <g>
   </g>
   <g>
   </g>
   <g>
   </g>
   <g>
   </g>
   <g>
   </g>
   <g>
   </g>
   <g>
   </g>
  </g>
 </g>
</svg>
