<?xml version="1.0" encoding="UTF-8"?>
<!DOCTYPE svg PUBLIC "-//W3C//DTD SVG 1.1//EN" "http://www.w3.org/Graphics/SVG/1.1/DTD/svg11.dtd">
<!-- Creator: CorelDRAW X7 -->
<svg xmlns="http://www.w3.org/2000/svg" xml:space="preserve" width="53px" height="50px" version="1.1" style="shape-rendering:geometricPrecision; text-rendering:geometricPrecision; image-rendering:optimizeQuality; fill-rule:evenodd; clip-rule:evenodd"
viewBox="0 0 31924345 30331375"
 xmlns:xlink="http://www.w3.org/1999/xlink">
 <defs>
  <style type="text/css">
   <![CDATA[
    .fil0 {fill:#F7704E}
   ]]>
  </style>
 </defs>
 <g id="Layer_x0020_1">
  <metadata id="CorelCorpID_0Corel-Layer"/>
  <g id="_2381051848512">
   <g>
    <path class="fil0" d="M30535316 10341027l-8791472 -831285c-554222,-50366 -1033132,-403027 -1259543,-932113l-3148904 -7632948c-503855,-1259543 -2292579,-1259543 -2796339,0l-3123673 7632948c-201561,528991 -705321,881651 -1259543,932113l-8791758 831285c-1309909,125964 -1838995,1763398 -856516,2645049l6625238 5819089c428258,377891 604588,932113 478625,1486239l-1990095 8161654c-302294,1284963 1083213,2342755 2242022,1662855l7330655 -4307905c478624,-277063 1057981,-277063 1536605,0l7330845 4307905c1158810,679900 2544316,-352661 2241736,-1662855l-1964958 -8161654c-125964,-554222 50366,-1108443 478624,-1486239l6625238 -5819089c957344,-881651 403122,-2519085 -906787,-2645049z"/>
   </g>
   <g>
   </g>
   <g>
   </g>
   <g>
   </g>
   <g>
   </g>
   <g>
   </g>
   <g>
   </g>
   <g>
   </g>
   <g>
   </g>
   <g>
   </g>
   <g>
   </g>
   <g>
   </g>
   <g>
   </g>
   <g>
   </g>
   <g>
   </g>
   <g>
   </g>
  </g>
 </g>
</svg>
