<?xml version="1.0" encoding="UTF-8"?>
<!DOCTYPE svg PUBLIC "-//W3C//DTD SVG 1.1//EN" "http://www.w3.org/Graphics/SVG/1.1/DTD/svg11.dtd">
<!-- Creator: CorelDRAW X7 -->
<svg xmlns="http://www.w3.org/2000/svg" xml:space="preserve" width="1043px" height="1536px" version="1.1" style="shape-rendering:geometricPrecision; text-rendering:geometricPrecision; image-rendering:optimizeQuality; fill-rule:evenodd; clip-rule:evenodd"
viewBox="0 0 2382803 3510508"
 xmlns:xlink="http://www.w3.org/1999/xlink">
 <defs>
  <style type="text/css">
   <![CDATA[
    .fil0 {fill:#727376}
   ]]>
  </style>
 </defs>
 <g id="Layer_x0020_1">
  <metadata id="CorelCorpID_0Corel-Layer"/>
  <g id="_2327510366176">
   <g>
    <g>
     <path class="fil0" d="M1191403 0c-656939,0 -1191403,534459 -1191403,1191395 0,263992 155422,665468 489125,1263470 227714,408038 454375,752688 463938,767206l163827 248324c16518,25044 44505,40113 74513,40113 30008,0 57994,-15069 74513,-40113l163819 -248308c9468,-14353 234483,-356026 463943,-767219 333703,-597973 489125,-999452 489125,-1263471 0,-656938 -534467,-1191397 -1191400,-1191397zm546383 2367864c-226270,405444 -447727,741754 -457061,755886l-89322 135390 -89296 -135355c-9384,-14245 -232539,-353571 -457090,-755921 -309538,-554704 -466488,-950526 -466488,-1176469 3,-558494 454372,-1012863 1012874,-1012863 558499,0 1012868,454369 1012868,1012863 0,225970 -156950,621778 -466485,1176469z"/>
     <path class="fil0" d="M1191403 523390c-364240,0 -660567,296334 -660567,660566 0,364232 296327,660564 660567,660564 364240,0 660564,-296332 660564,-660564 0,-364232 -296324,-660566 -660564,-660566zm0 1142598c-265798,0 -482035,-216237 -482035,-482034 0,-265798 216237,-482035 482035,-482035 265805,0 482035,216237 482035,482035 0,265797 -216230,482034 -482035,482034z"/>
    </g>
   </g>
   <g>
   </g>
   <g>
   </g>
   <g>
   </g>
   <g>
   </g>
   <g>
   </g>
   <g>
   </g>
   <g>
   </g>
   <g>
   </g>
   <g>
   </g>
   <g>
   </g>
   <g>
   </g>
   <g>
   </g>
   <g>
   </g>
   <g>
   </g>
   <g>
   </g>
  </g>
 </g>
</svg>
