<?xml version="1.0" encoding="UTF-8"?>
<!DOCTYPE svg PUBLIC "-//W3C//DTD SVG 1.1//EN" "http://www.w3.org/Graphics/SVG/1.1/DTD/svg11.dtd">
<!-- Creator: CorelDRAW X7 -->
<svg xmlns="http://www.w3.org/2000/svg" xml:space="preserve" width="112px" height="100px" version="1.1" style="shape-rendering:geometricPrecision; text-rendering:geometricPrecision; image-rendering:optimizeQuality; fill-rule:evenodd; clip-rule:evenodd"
viewBox="0 0 244883 219558"
 xmlns:xlink="http://www.w3.org/1999/xlink"
 enable-background="new 0 0 320 100">
 <defs>
  <style type="text/css">
   <![CDATA[
    .fil0 {fill:#606062}
   ]]>
  </style>
 </defs>
 <g id="Layer_x0020_1">
  <metadata id="CorelCorpID_0Corel-Layer"/>
  <g id="_2543469365616">
   <g id="_2327512228576">
    <g>
     <path class="fil0" d="M243100 58112c-6974,-35078 -31910,-57689 -64029,-57689 -17963,0 -37403,7396 -56423,21341 -19230,-14368 -38669,-21764 -56844,-21764 -32120,0 -57268,22821 -64028,58323 -10143,52618 22399,122564 117703,160601 1056,423 2113,634 3169,634 1057,0 2113,-211 3169,-634 95094,-38882 127426,-108617 117283,-160812l0 0zm-120452 143485c-83682,-34657 -112631,-95093 -103967,-140104 5070,-26838 23667,-44377 47123,-44377 15849,0 33599,7608 51351,22189 3169,2535 7606,2535 10777,0 17750,-14159 35289,-21555 51139,-21555 23456,0 41840,17117 47122,43743 8666,44587 -20074,104815 -103545,140104l0 0z"/>
    </g>
   </g>
  </g>
 </g>
</svg>
