<?xml version="1.0" encoding="UTF-8"?>
<!DOCTYPE svg PUBLIC "-//W3C//DTD SVG 1.1//EN" "http://www.w3.org/Graphics/SVG/1.1/DTD/svg11.dtd">
<!-- Creator: CorelDRAW X7 -->
<svg xmlns="http://www.w3.org/2000/svg" xml:space="preserve" width="112px" height="100px" version="1.1" style="shape-rendering:geometricPrecision; text-rendering:geometricPrecision; image-rendering:optimizeQuality; fill-rule:evenodd; clip-rule:evenodd"
viewBox="0 0 220827 197990"
 xmlns:xlink="http://www.w3.org/1999/xlink"
 enable-background="new 0 0 320 100">
 <defs>
  <style type="text/css">
   <![CDATA[
    .fil0 {fill:#FAFAFA}
   ]]>
  </style>
 </defs>
 <g id="Layer_x0020_1">
  <metadata id="CorelCorpID_0Corel-Layer"/>
  <g id="_2543959862560">
   <g id="_2327512228576">
    <g>
     <path class="fil0" d="M219219 52403c-6288,-31632 -28775,-52022 -57739,-52022 -16198,0 -33729,6670 -50880,19245 -17341,-12956 -34871,-19626 -51260,-19626 -28965,0 -51642,20579 -57739,52594 -9146,47449 20200,110524 106141,144825 953,381 1905,571 2858,571 953,0 1905,-190 2858,-571 85752,-35063 114908,-97948 105761,-145016l0 0zm-108619 129390c-75462,-31252 -101567,-85751 -93754,-126340 4572,-24202 21342,-40018 42494,-40018 14292,0 30299,6860 46307,20009 2857,2286 6858,2286 9718,0 16006,-12768 31822,-19437 46115,-19437 21152,0 37730,15435 42494,39446 7814,40207 -18103,94518 -93374,126340l0 0z"/>
    </g>
   </g>
  </g>
 </g>
</svg>
