<?xml version="1.0" encoding="UTF-8"?>
<!DOCTYPE svg PUBLIC "-//W3C//DTD SVG 1.1//EN" "http://www.w3.org/Graphics/SVG/1.1/DTD/svg11.dtd">
<!-- Creator: CorelDRAW X7 -->
<svg xmlns="http://www.w3.org/2000/svg" xml:space="preserve" width="64px" height="60px" version="1.1" style="shape-rendering:geometricPrecision; text-rendering:geometricPrecision; image-rendering:optimizeQuality; fill-rule:evenodd; clip-rule:evenodd"
viewBox="0 0 4085 3803"
 xmlns:xlink="http://www.w3.org/1999/xlink">
 <defs>
  <style type="text/css">
   <![CDATA[
    .fil0 {fill:#606062}
   ]]>
  </style>
 </defs>
 <g id="Layer_x0020_1">
  <metadata id="CorelCorpID_0Corel-Layer"/>
  <g id="_2656101076928">
   <g>
    <g>
     <g>
      <path class="fil0" d="M4016 1719l-619 -619 0 -715c0,-130 -105,-234 -234,-234 -129,0 -234,104 -234,234l0 247 -461 -461c-228,-228 -624,-228 -852,0l-1547 1548c-92,91 -92,240 0,331 91,91 239,91 331,0l1547 -1548c51,-50 140,-50 190,0l1548 1548c46,46 106,68 165,68 60,0 120,-22 166,-68 91,-91 91,-240 0,-331z"/>
      <path class="fil0" d="M2124 946c-45,-44 -118,-44 -163,0l-1361 1362c-22,21 -34,50 -34,81l0 993c0,233 189,421 422,421l674 0 0 -1043 761 0 0 1043 674 0c233,0 422,-188 422,-421l0 -993c0,-31 -12,-60 -34,-81l-1361 -1362z"/>
     </g>
    </g>
   </g>
   <g>
   </g>
   <g>
   </g>
   <g>
   </g>
   <g>
   </g>
   <g>
   </g>
   <g>
   </g>
   <g>
   </g>
   <g>
   </g>
   <g>
   </g>
   <g>
   </g>
   <g>
   </g>
   <g>
   </g>
   <g>
   </g>
   <g>
   </g>
   <g>
   </g>
  </g>
 </g>
</svg>
