<?xml version="1.0" encoding="UTF-8"?>
<!DOCTYPE svg PUBLIC "-//W3C//DTD SVG 1.1//EN" "http://www.w3.org/Graphics/SVG/1.1/DTD/svg11.dtd">
<!-- Creator: CorelDRAW X7 -->
<svg xmlns="http://www.w3.org/2000/svg" xml:space="preserve" width="64px" height="60px" version="1.1" style="shape-rendering:geometricPrecision; text-rendering:geometricPrecision; image-rendering:optimizeQuality; fill-rule:evenodd; clip-rule:evenodd"
viewBox="0 0 4102 3819"
 xmlns:xlink="http://www.w3.org/1999/xlink">
 <defs>
  <style type="text/css">
   <![CDATA[
    .fil0 {fill:#FEFEFE}
   ]]>
  </style>
 </defs>
 <g id="Layer_x0020_1">
  <metadata id="CorelCorpID_0Corel-Layer"/>
  <g id="_2655794934256">
   <g>
    <g>
     <g>
      <path class="fil0" d="M4033 1726l-622 -622 0 -718c0,-130 -105,-235 -235,-235 -130,0 -235,105 -235,235l0 248 -463 -463c-229,-228 -627,-228 -855,1l-1554 1554c-92,92 -92,241 0,333 92,91 241,91 332,0l1555 -1555c50,-50 139,-50 190,0l1554 1555c46,45 106,68 167,68 60,0 120,-23 166,-68 92,-92 92,-241 0,-333z"/>
      <path class="fil0" d="M2133 950c-46,-45 -119,-45 -164,0l-1367 1367c-22,22 -34,51 -34,82l0 997c0,234 190,423 424,423l677 0 0 -1048 764 0 0 1048 677 0c234,0 423,-189 423,-423l0 -997c0,-31 -12,-60 -33,-82l-1367 -1367z"/>
     </g>
    </g>
   </g>
   <g>
   </g>
   <g>
   </g>
   <g>
   </g>
   <g>
   </g>
   <g>
   </g>
   <g>
   </g>
   <g>
   </g>
   <g>
   </g>
   <g>
   </g>
   <g>
   </g>
   <g>
   </g>
   <g>
   </g>
   <g>
   </g>
   <g>
   </g>
   <g>
   </g>
  </g>
 </g>
</svg>
