<?xml version="1.0" encoding="UTF-8"?>
<!DOCTYPE svg PUBLIC "-//W3C//DTD SVG 1.1//EN" "http://www.w3.org/Graphics/SVG/1.1/DTD/svg11.dtd">
<!-- Creator: CorelDRAW X7 -->
<svg xmlns="http://www.w3.org/2000/svg" xml:space="preserve" width="20px" height="20px" version="1.1" style="shape-rendering:geometricPrecision; text-rendering:geometricPrecision; image-rendering:optimizeQuality; fill-rule:evenodd; clip-rule:evenodd"
viewBox="0 0 59554 59554"
 xmlns:xlink="http://www.w3.org/1999/xlink">
 <defs>
  <style type="text/css">
   <![CDATA[
    .fil0 {fill:#ED7250}
   ]]>
  </style>
 </defs>
 <g id="Layer_x0020_1">
  <metadata id="CorelCorpID_0Corel-Layer"/>
  <g id="_2713442810960">
   <g>
    <g>
     <path class="fil0" d="M29777 0c-16418,0 -29777,13358 -29777,29777 0,16420 13359,29777 29777,29777 16419,0 29777,-13357 29777,-29777 0,-16419 -13358,-29777 -29777,-29777zm0 55889c-14398,0 -26112,-11713 -26112,-26112 0,-14398 11714,-26112 26112,-26112 14399,0 26112,11714 26112,26112 0,14399 -11713,26112 -26112,26112z"/>
     <circle class="fil0" cx="30252" cy="17904" r="3065"/>
     <path class="fil0" d="M29445 25968c-1012,0 -1833,820 -1833,1832l0 15576c0,1011 821,1832 1833,1832 1011,0 1832,-821 1832,-1832l0 -15576c0,-1013 -821,-1832 -1832,-1832z"/>
    </g>
   </g>
   <g>
   </g>
   <g>
   </g>
   <g>
   </g>
   <g>
   </g>
   <g>
   </g>
   <g>
   </g>
   <g>
   </g>
   <g>
   </g>
   <g>
   </g>
   <g>
   </g>
   <g>
   </g>
   <g>
   </g>
   <g>
   </g>
   <g>
   </g>
   <g>
   </g>
  </g>
 </g>
</svg>
