<?xml version="1.0" encoding="UTF-8"?>
<!DOCTYPE svg PUBLIC "-//W3C//DTD SVG 1.1//EN" "http://www.w3.org/Graphics/SVG/1.1/DTD/svg11.dtd">
<!-- Creator: CorelDRAW X7 -->
<svg xmlns="http://www.w3.org/2000/svg" xml:space="preserve" width="78px" height="100px" version="1.1" style="shape-rendering:geometricPrecision; text-rendering:geometricPrecision; image-rendering:optimizeQuality; fill-rule:evenodd; clip-rule:evenodd"
viewBox="0 0 89347 114060"
 xmlns:xlink="http://www.w3.org/1999/xlink">
 <defs>
  <style type="text/css">
   <![CDATA[
    .fil0 {fill:#FEFEFE}
   ]]>
  </style>
 </defs>
 <g id="Layer_x0020_1">
  <metadata id="CorelCorpID_0Corel-Layer"/>
  <g id="_2557563043904">
   <g>
    <path class="fil0" d="M61619 0l-61619 0 0 114060 89347 0 0 -86332 -27728 -27728zm1114 6490l20124 20124 -20124 0 0 -20124zm-58931 103768l0 -106456 55129 0 0 26614 26615 0 0 79842 -81744 0z"/>
    <path class="fil0" d="M68436 39921l-30416 0c-1049,0 -1901,850 -1901,1901 0,1051 852,1901 1901,1901l30416 0c1049,0 1901,-850 1901,-1901 0,-1051 -852,-1901 -1901,-1901z"/>
    <path class="fil0" d="M31129 34635l-8177 6541 -2598 -2599c-743,-743 -1945,-743 -2688,0 -743,744 -743,1945 0,2688l3802 3802c369,369 856,557 1344,557 419,0 839,-137 1186,-416l9506 -7605c820,-657 952,-1853 296,-2672 -654,-821 -1852,-953 -2671,-296z"/>
    <path class="fil0" d="M68436 60832l-30416 0c-1049,0 -1901,850 -1901,1901 0,1051 852,1901 1901,1901l30416 0c1049,0 1901,-850 1901,-1901 0,-1051 -852,-1901 -1901,-1901z"/>
    <path class="fil0" d="M31129 55545l-8177 6542 -2598 -2599c-743,-743 -1945,-743 -2688,0 -743,743 -743,1945 0,2688l3802 3802c369,369 856,557 1344,557 419,0 839,-137 1186,-416l9506 -7604c820,-658 952,-1853 296,-2673 -654,-821 -1852,-952 -2671,-297z"/>
    <path class="fil0" d="M68436 81743l-30416 0c-1049,0 -1901,850 -1901,1901 0,1052 852,1901 1901,1901l30416 0c1049,0 1901,-849 1901,-1901 0,-1051 -852,-1901 -1901,-1901z"/>
    <path class="fil0" d="M31129 76457l-8177 6541 -2598 -2599c-743,-743 -1945,-743 -2688,0 -743,743 -743,1945 0,2688l3802 3802c369,369 856,557 1344,557 419,0 839,-137 1186,-416l9506 -7604c820,-658 952,-1854 296,-2673 -654,-821 -1852,-953 -2671,-296z"/>
   </g>
   <g>
   </g>
   <g>
   </g>
   <g>
   </g>
   <g>
   </g>
   <g>
   </g>
   <g>
   </g>
   <g>
   </g>
   <g>
   </g>
   <g>
   </g>
   <g>
   </g>
   <g>
   </g>
   <g>
   </g>
   <g>
   </g>
   <g>
   </g>
   <g>
   </g>
  </g>
 </g>
</svg>
