<?xml version="1.0" encoding="UTF-8"?>
<!DOCTYPE svg PUBLIC "-//W3C//DTD SVG 1.1//EN" "http://www.w3.org/Graphics/SVG/1.1/DTD/svg11.dtd">
<!-- Creator: CorelDRAW X7 -->
<svg xmlns="http://www.w3.org/2000/svg" xml:space="preserve" width="79px" height="60px" version="1.1" style="shape-rendering:geometricPrecision; text-rendering:geometricPrecision; image-rendering:optimizeQuality; fill-rule:evenodd; clip-rule:evenodd"
viewBox="0 0 4712 3579"
 xmlns:xlink="http://www.w3.org/1999/xlink">
 <defs>
  <style type="text/css">
   <![CDATA[
    .fil0 {fill:#606062}
   ]]>
  </style>
 </defs>
 <g id="Layer_x0020_1">
  <metadata id="CorelCorpID_0Corel-Layer"/>
  <g id="_2655875119504">
   <g>
    <g>
     <path class="fil0" d="M0 597l0 2385c0,329 268,597 597,597l1928 0c328,0 597,-268 597,-597l0 -386c0,-66 -53,-118 -119,-118 -65,0 -118,52 -118,118l0 386c0,199 -162,362 -361,362l-1927 0c-199,0 -362,-163 -362,-362l0 -2385c0,-199 163,-362 362,-362l1928 0c199,0 361,163 361,362l0 386c0,66 53,118 118,118 66,0 119,-52 119,-118l0 -386c0,-329 -269,-597 -597,-597l-1929 0c-329,0 -597,267 -597,597z"/>
     <path class="fil0" d="M3704 2679c23,23 53,34 84,34 30,0 60,-11 83,-34l807 -807c46,-46 46,-120 0,-166l-807 -806c-46,-47 -120,-47 -166,0 -46,46 -46,120 0,166l605 605 -2209 0c-65,0 -118,53 -118,119 0,65 53,118 118,118l2208 0 -605 605c-46,45 -46,120 0,166z"/>
    </g>
   </g>
   <g>
   </g>
   <g>
   </g>
   <g>
   </g>
   <g>
   </g>
   <g>
   </g>
   <g>
   </g>
   <g>
   </g>
   <g>
   </g>
   <g>
   </g>
   <g>
   </g>
   <g>
   </g>
   <g>
   </g>
   <g>
   </g>
   <g>
   </g>
   <g>
   </g>
  </g>
 </g>
</svg>
