<?xml version="1.0" encoding="UTF-8"?>
<!DOCTYPE svg PUBLIC "-//W3C//DTD SVG 1.1//EN" "http://www.w3.org/Graphics/SVG/1.1/DTD/svg11.dtd">
<!-- Creator: CorelDRAW X7 -->
<svg xmlns="http://www.w3.org/2000/svg" xml:space="preserve" width="66px" height="60px" version="1.1" style="shape-rendering:geometricPrecision; text-rendering:geometricPrecision; image-rendering:optimizeQuality; fill-rule:evenodd; clip-rule:evenodd"
viewBox="0 0 3835 3480"
 xmlns:xlink="http://www.w3.org/1999/xlink"
 enable-background="new 0 0 64 64">
 <defs>
  <style type="text/css">
   <![CDATA[
    .str0 {stroke:#606062;stroke-width:13.1015}
    .fil0 {fill:#606062}
   ]]>
  </style>
 </defs>
 <g id="Layer_x0020_1">
  <metadata id="CorelCorpID_0Corel-Layer"/>
  <g id="_2655876777264">
   <g>
    <path class="fil0 str0" d="M10 3368c7,34 35,72 67,88 21,12 45,17 71,17 156,0 789,-327 1185,-540 208,66 339,69 574,69l14 0c1052,0 1908,-672 1908,-1498 0,-825 -856,-1497 -1908,-1497 -1052,0 -1908,672 -1908,1497 0,390 194,766 537,1044 -52,78 -157,210 -232,305 -271,343 -327,425 -308,515zm499 -366c261,-331 321,-417 309,-504 -4,-32 -26,-70 -53,-89 -329,-240 -510,-561 -510,-904 0,-694 747,-1258 1666,-1258 918,0 1666,564 1666,1258 0,693 -748,1257 -1666,1257l-14 0c-238,0 -343,-3 -546,-73 -32,-11 -68,-9 -98,8 -293,158 -626,328 -855,433 35,-45 70,-90 101,-128l0 0z"/>
   </g>
  </g>
 </g>
</svg>
