<?xml version="1.0" encoding="UTF-8"?>
<!DOCTYPE svg PUBLIC "-//W3C//DTD SVG 1.1//EN" "http://www.w3.org/Graphics/SVG/1.1/DTD/svg11.dtd">
<!-- Creator: CorelDRAW X7 -->
<svg xmlns="http://www.w3.org/2000/svg" xml:space="preserve" width="62px" height="60px" version="1.1" style="shape-rendering:geometricPrecision; text-rendering:geometricPrecision; image-rendering:optimizeQuality; fill-rule:evenodd; clip-rule:evenodd"
viewBox="0 0 3046 2960"
 xmlns:xlink="http://www.w3.org/1999/xlink">
 <defs>
  <style type="text/css">
   <![CDATA[
    .fil0 {fill:#FEFEFE}
   ]]>
  </style>
 </defs>
 <g id="Layer_x0020_1">
  <metadata id="CorelCorpID_0Corel-Layer"/>
  <g id="_2656130021872">
   <g>
    <g>
     <path class="fil0" d="M2309 2036c-102,0 -186,83 -186,186 0,103 84,186 186,186 103,0 187,-83 187,-186 0,-103 -84,-186 -187,-186z"/>
     <path class="fil0" d="M2949 1957c2,-11 3,-21 3,-32 0,-67 -27,-130 -74,-177l-95 -95c-53,-53 -132,-80 -208,-71 -46,-59 -118,-98 -199,-98l-134 0c-81,0 -153,38 -199,98 -75,-10 -153,17 -206,69l-148 -124 -283 281 -284 -281 -165 139 -343 158c-51,20 -96,56 -126,107l-488 816 1791 0 44 44c53,53 132,80 208,71 46,59 118,98 199,98l134 0c81,0 153,-39 199,-98 75,10 154,-17 208,-71l95 -95c47,-47 73,-110 73,-178 0,-10 0,-20 -1,-31 58,-46 96,-117 96,-198l0 -134c0,-81 -38,-152 -97,-198zm-102 332c0,28 -23,51 -51,51l-81 0c-9,30 -21,58 -35,85l57 57c20,20 20,53 0,73l-95 95c-19,19 -53,19 -72,0l-58 -58c-27,15 -55,27 -84,35l0 81c0,29 -23,52 -51,52l-135 0c-28,0 -51,-23 -51,-52l0 -81c-29,-8 -58,-20 -84,-35l-58 58c-18,18 -54,18 -72,0l-95 -95c-10,-10 -15,-23 -15,-37 0,-13 5,-26 15,-36l57 -57c-14,-27 -26,-55 -35,-85l-81 0c-28,0 -51,-23 -51,-51l0 -134c0,-29 23,-52 51,-52l81 0c9,-29 20,-57 35,-84l-57 -57c-20,-20 -20,-53 0,-73l95 -95c19,-19 53,-19 72,0l58 58c26,-15 55,-27 84,-35l0 -82c0,-28 23,-51 51,-51l135 0c28,0 51,23 51,51l0 82c29,8 57,20 84,35l58 -58c18,-19 54,-19 72,0l95 95c10,10 15,23 15,36 0,14 -5,27 -15,37l-57 57c14,27 26,55 35,84l81 0c28,0 51,23 51,52l0 134 0 0z"/>
     <path class="fil0" d="M1404 1561l0 0c0,0 0,0 1,0 0,0 0,0 0,0 0,0 0,0 1,0 0,0 0,0 0,0 0,0 0,0 0,0 1,0 1,0 1,0l0 0c400,6 643,-344 649,-921 5,-400 -244,-629 -648,-640l0 0c-1,0 -1,0 -2,0l0 0c0,0 0,0 -1,0 0,0 0,0 0,0l0 0c-1,0 -2,0 -2,0l0 0c-404,11 -653,240 -649,640 7,577 250,927 650,921z"/>
    </g>
   </g>
   <g>
   </g>
   <g>
   </g>
   <g>
   </g>
   <g>
   </g>
   <g>
   </g>
   <g>
   </g>
   <g>
   </g>
   <g>
   </g>
   <g>
   </g>
   <g>
   </g>
   <g>
   </g>
   <g>
   </g>
   <g>
   </g>
   <g>
   </g>
   <g>
   </g>
  </g>
 </g>
</svg>
