<?xml version="1.0" encoding="UTF-8"?>
<!DOCTYPE svg PUBLIC "-//W3C//DTD SVG 1.1//EN" "http://www.w3.org/Graphics/SVG/1.1/DTD/svg11.dtd">
<!-- Creator: CorelDRAW X7 -->
<svg xmlns="http://www.w3.org/2000/svg" xml:space="preserve" width="62px" height="60px" version="1.1" style="shape-rendering:geometricPrecision; text-rendering:geometricPrecision; image-rendering:optimizeQuality; fill-rule:evenodd; clip-rule:evenodd"
viewBox="0 0 3041 2954"
 xmlns:xlink="http://www.w3.org/1999/xlink">
 <defs>
  <style type="text/css">
   <![CDATA[
    .fil0 {fill:#606062}
   ]]>
  </style>
 </defs>
 <g id="Layer_x0020_1">
  <metadata id="CorelCorpID_0Corel-Layer"/>
  <g id="_2655874212288">
   <g>
    <g>
     <path class="fil0" d="M2305 2032c-102,0 -186,83 -186,186 0,102 84,186 186,186 103,0 186,-84 186,-186 0,-103 -83,-186 -186,-186z"/>
     <path class="fil0" d="M2944 1953c1,-10 2,-21 2,-31 0,-67 -26,-130 -73,-177l-95 -95c-53,-53 -132,-80 -208,-71 -46,-59 -118,-97 -198,-97l-135 0c-80,0 -152,38 -198,97 -74,-10 -152,17 -206,69l-147 -124 -283 281 -283 -281 -165 139 -342 157c-51,21 -96,57 -126,108l-487 814 1788 0 43 44c54,53 133,80 208,70 46,60 118,98 198,98l135 0c80,0 152,-38 198,-97 75,9 154,-18 208,-71l95 -95c47,-47 73,-110 73,-177 0,-11 -1,-21 -2,-31 59,-46 97,-118 97,-198l0 -134c0,-81 -38,-152 -97,-198zm-102 332c0,28 -23,51 -51,51l-81 0c-9,29 -21,57 -35,84l57 58c20,20 20,52 0,72l-95 95c-19,19 -53,19 -72,0l-57 -58c-27,15 -55,27 -85,35l0 81c0,29 -22,51 -51,51l-134 0c-28,0 -51,-22 -51,-51l0 -81c-29,-8 -58,-20 -84,-35l-58 58c-18,18 -53,18 -72,0l-95 -95c-9,-10 -15,-23 -15,-36 0,-14 6,-27 15,-36l58 -58c-15,-27 -27,-55 -35,-84l-81 0c-29,0 -52,-23 -52,-51l0 -134c0,-29 23,-51 52,-51l81 0c8,-30 20,-58 35,-85l-58 -57c-20,-20 -20,-52 0,-72l95 -95c19,-19 53,-19 72,0l58 57c26,-14 55,-26 84,-35l0 -81c0,-28 23,-51 51,-51l134 0c29,0 51,23 51,51l0 81c30,9 58,20 85,35l57 -57c19,-19 54,-19 72,0l95 95c10,9 15,22 15,36 0,13 -5,26 -15,36l-57 57c14,27 26,55 35,85l81 0c28,0 51,22 51,51l0 134 0 0z"/>
     <path class="fil0" d="M1401 1558l0 0c0,0 1,0 1,0 0,0 0,0 1,0 0,0 0,0 0,0 0,0 0,0 0,0 0,0 1,0 1,0 0,0 0,0 1,0l0 0c399,6 641,-343 648,-919 4,-400 -244,-628 -648,-639l0 0c0,0 -1,0 -1,0l0 0c-1,0 -1,0 -1,0 0,0 -1,0 -1,0l0 0c-1,0 -1,0 -2,0l0 0c-403,11 -651,239 -647,639 6,576 249,925 648,919z"/>
    </g>
   </g>
   <g>
   </g>
   <g>
   </g>
   <g>
   </g>
   <g>
   </g>
   <g>
   </g>
   <g>
   </g>
   <g>
   </g>
   <g>
   </g>
   <g>
   </g>
   <g>
   </g>
   <g>
   </g>
   <g>
   </g>
   <g>
   </g>
   <g>
   </g>
   <g>
   </g>
  </g>
 </g>
</svg>
