<?xml version="1.0" encoding="UTF-8"?>
<!DOCTYPE svg PUBLIC "-//W3C//DTD SVG 1.1//EN" "http://www.w3.org/Graphics/SVG/1.1/DTD/svg11.dtd">
<!-- Creator: CorelDRAW X7 -->
<svg xmlns="http://www.w3.org/2000/svg" xml:space="preserve" width="59px" height="60px" version="1.1" style="shape-rendering:geometricPrecision; text-rendering:geometricPrecision; image-rendering:optimizeQuality; fill-rule:evenodd; clip-rule:evenodd"
viewBox="0 0 3229 3262"
 xmlns:xlink="http://www.w3.org/1999/xlink">
 <defs>
  <style type="text/css">
   <![CDATA[
    .fil0 {fill:#fff}
   ]]>
  </style>
 </defs>
 <g id="Layer_x0020_1">
  <metadata id="CorelCorpID_0Corel-Layer"/>
  <g id="_2655794941648">
   <g>
    <path class="fil0" d="M3229 1519l-156 0 0 -719c0,-173 -141,-313 -313,-313l-212 0 -217 -390c-33,-60 -96,-97 -165,-97 -31,0 -63,8 -91,24l-832 463 -930 0c-173,0 -313,140 -313,313l0 2149c0,172 140,313 313,313l2447 0c172,0 313,-141 313,-313l0 -631 156 0 0 -799zm-469 -907c96,0 175,73 185,167l-235 0 -93 -167 143 0zm-624 -479c30,-16 69,-5 85,24l346 622 -1592 0 1161 -646zm811 2816c0,103 -84,188 -187,188l-2447 0c-104,0 -188,-85 -188,-188l0 -2149c0,-104 84,-188 188,-188l705 0 -301 167 -365 0c-34,0 -62,28 -62,62 0,35 28,63 62,63l140 0 2288 0 167 0 0 616 -457 0c-213,0 -386,173 -386,385l0 27c0,213 173,386 386,386l457 0 0 631zm157 -757l-31 0 -583 0c-144,0 -261,-116 -261,-260l0 -27c0,-144 117,-260 261,-260l583 0 31 0 0 547zm-423 -268c0,76 -62,138 -138,138 -76,0 -138,-62 -138,-138 0,-77 62,-139 138,-139 76,0 138,62 138,139z"/>
   </g>
   <g>
   </g>
   <g>
   </g>
   <g>
   </g>
   <g>
   </g>
   <g>
   </g>
   <g>
   </g>
   <g>
   </g>
   <g>
   </g>
   <g>
   </g>
   <g>
   </g>
   <g>
   </g>
   <g>
   </g>
   <g>
   </g>
   <g>
   </g>
   <g>
   </g>
  </g>
 </g>
</svg>
