<?xml version="1.0" encoding="UTF-8"?>
<!DOCTYPE svg PUBLIC "-//W3C//DTD SVG 1.1//EN" "http://www.w3.org/Graphics/SVG/1.1/DTD/svg11.dtd">
<!-- Creator: CorelDRAW X7 -->
<svg xmlns="http://www.w3.org/2000/svg" xml:space="preserve" width="41px" height="50px" version="1.1" style="shape-rendering:geometricPrecision; text-rendering:geometricPrecision; image-rendering:optimizeQuality; fill-rule:evenodd; clip-rule:evenodd"
viewBox="0 0 99327 120284"
 xmlns:xlink="http://www.w3.org/1999/xlink">
 <defs>
  <style type="text/css">
   <![CDATA[
    .fil0 {fill:#ED7250}
   ]]>
  </style>
 </defs>
 <g id="Layer_x0020_1">
  <metadata id="CorelCorpID_0Corel-Layer"/>
  <g>
   <path id="Combined-Shape" class="fil0" d="M49376 103201l7555 -10027 -7555 10027zm14823 -19671l7688 -10202 -7688 10202zm14956 -19847l7555 -10026 -7555 10026zm14823 -19671l4670 -6198c1882,-2497 -339,-7018 -4326,-10023l-33100 -24942c-3987,-3005 -8945,-3893 -10827,-1396l-49788 97554c-1710,2271 339,7018 4327,10024l20949 9581c4442,1511 9733,2848 11877,3l4348 -5769 51870 -68834zm-44602 59189l0 0 0 0zm37334 -49544l7268 -9645c-115,-100 -233,-197 -357,-291l-12652 -9534c-2625,-1978 -6483,-1490 -8495,1181 -2027,2690 -1473,6473 1206,8492l12652 9534c124,93 250,181 378,263l0 0 0 0 0 0 0 0 0 0 0 0 0 0 0 0zm-7555 10026l-7268 9645c-129,-82 -255,-170 -378,-263l-12652 -9534c-2680,-2019 -3233,-5802 -1207,-8492 2013,-2671 5870,-3159 8495,-1181l12653 9534c123,94 242,191 357,291l0 0 0 0 0 0 0 0 0 0 0 0 0 0 0 0zm-22224 29491l7268 -9644c-115,-101 -234,-198 -357,-290l-12652 -9535c-2626,-1978 -6482,-1490 -8495,1181 -2027,2690 -1473,6473 1206,8491l12652 9535c124,93 250,180 378,262l0 0 0 0 0 0 0 0 0 0 0 0 0 0 0 0zm-7555 10027l-7268 9645c-128,-83 -254,-170 -378,-263l-12652 -9534c-2679,-2019 -3233,-5802 -1206,-8492 2012,-2670 5869,-3159 8495,-1181l12652 9535c124,92 243,189 357,290l0 0 0 0 0 0 0 0 0 0 0 0 0 0 0 0z"/>
  </g>
 </g>
</svg>
