<?xml version="1.0" encoding="UTF-8"?>
<!DOCTYPE svg PUBLIC "-//W3C//DTD SVG 1.1//EN" "http://www.w3.org/Graphics/SVG/1.1/DTD/svg11.dtd">
<!-- Creator: CorelDRAW X7 -->
<svg xmlns="http://www.w3.org/2000/svg" xml:space="preserve" width="60px" height="60px" version="1.1" style="shape-rendering:geometricPrecision; text-rendering:geometricPrecision; image-rendering:optimizeQuality; fill-rule:evenodd; clip-rule:evenodd"
viewBox="0 0 3204 3204"
 xmlns:xlink="http://www.w3.org/1999/xlink">
 <defs>
  <style type="text/css">
   <![CDATA[
    .fil0 {fill:#fff}
   ]]>
  </style>
 </defs>
 <g id="Layer_x0020_1">
  <metadata id="CorelCorpID_0Corel-Layer"/>
  <g id="_2655872761616">
   <g>
    <path class="fil0" d="M2609 2195c-25,-26 -66,-26 -92,0 -25,25 -25,66 0,92l127 126c30,31 47,71 47,114 0,43 -17,83 -47,114l-3 3c-31,30 -71,47 -114,47 -43,0 -83,-17 -114,-47l-126 -127c-22,-22 -57,-25 -82,-8 -119,79 -249,133 -388,161 -30,6 -52,32 -52,64l0 179c0,88 -72,160 -161,160l-4 0c-89,0 -161,-72 -161,-160l0 -179c0,-31 -22,-58 -52,-64 -139,-28 -270,-82 -388,-161 -26,-17 -60,-14 -82,8l-127 127c-30,30 -70,47 -113,47 -43,0 -84,-17 -114,-47l-3 -3c-31,-31 -47,-71 -47,-114 0,-43 16,-83 47,-114l126 -126c22,-22 26,-57 9,-82 -79,-119 -133,-249 -161,-388 -6,-30 -33,-52 -64,-52l-179 0c-89,0 -161,-72 -161,-161l0 -4c0,-89 72,-161 161,-161l179 0c31,0 58,-22 64,-52 28,-139 82,-270 161,-388 17,-26 13,-60 -9,-82l-126 -127c-31,-30 -47,-70 -47,-113 0,-43 16,-84 47,-114l3 -3c30,-31 71,-47 114,-47 43,0 83,16 113,47l127 126c25,26 67,26 92,0 26,-25 26,-66 0,-92l-127 -126c-55,-55 -128,-86 -205,-86 -78,0 -151,31 -206,86l-3 3c-55,55 -86,128 -86,206 0,77 31,150 86,205l89 90c-63,105 -110,218 -139,336l-127 0c-160,0 -291,131 -291,292l0 4c0,161 131,291 291,291l127 0c29,119 76,232 139,336l-89 90c-55,55 -86,128 -86,206 0,78 31,151 86,206l3 3c55,55 128,85 206,85 77,0 150,-30 205,-85l90 -90c105,64 218,111 336,140l0 127c0,160 131,291 292,291l4 0c161,0 291,-131 291,-291l0 -127c119,-29 232,-76 336,-140l90 90c55,55 128,85 206,85 78,0 151,-30 206,-85l3 -3c55,-55 85,-128 85,-206 0,-78 -30,-151 -85,-206l-127 -126z"/>
    <path class="fil0" d="M2913 1308l-127 0c-29,-118 -76,-231 -140,-336l90 -90c114,-113 114,-298 0,-411l-3 -3c-55,-55 -128,-86 -206,-86 -78,0 -151,31 -206,86l-90 89c-104,-63 -217,-110 -336,-139l0 -127c0,-160 -130,-291 -291,-291l-4 0c-161,0 -292,131 -292,291l0 179c0,36 30,65 66,65 36,0 65,-29 65,-65l0 -179c0,-89 72,-161 161,-161l4 0c89,0 161,72 161,161l0 179c0,31 22,58 52,64 139,28 269,82 388,161 25,17 60,13 82,-9l126 -126c31,-31 71,-47 114,-47 43,0 83,16 114,47l3 3c30,30 47,71 47,114 0,43 -17,83 -47,113l-127 127c-22,22 -25,56 -8,82 79,118 133,249 161,388 6,30 32,52 64,52l179 0c88,0 160,72 160,161l0 4c0,89 -72,161 -160,161l-179 0c-36,0 -66,29 -66,65 0,36 30,65 66,65l179 0c160,0 291,-130 291,-291l0 -4c0,-161 -131,-292 -291,-292z"/>
    <path class="fil0" d="M1602 1847c-57,0 -111,-18 -155,-54 -28,-23 -69,-19 -91,9 -23,28 -19,69 9,92 67,54 151,84 237,84 207,0 376,-169 376,-376 0,-207 -169,-376 -376,-376 -207,0 -376,169 -376,376 0,36 29,65 65,65 36,0 65,-29 65,-65 0,-136 110,-246 246,-246 135,0 245,110 245,246 0,135 -110,245 -245,245z"/>
   </g>
   <g>
   </g>
   <g>
   </g>
   <g>
   </g>
   <g>
   </g>
   <g>
   </g>
   <g>
   </g>
   <g>
   </g>
   <g>
   </g>
   <g>
   </g>
   <g>
   </g>
   <g>
   </g>
   <g>
   </g>
   <g>
   </g>
   <g>
   </g>
   <g>
   </g>
  </g>
 </g>
</svg>
