<?xml version="1.0" encoding="UTF-8"?>
<!DOCTYPE svg PUBLIC "-//W3C//DTD SVG 1.1//EN" "http://www.w3.org/Graphics/SVG/1.1/DTD/svg11.dtd">
<!-- Creator: CorelDRAW X7 -->
<svg xmlns="http://www.w3.org/2000/svg" xml:space="preserve" width="51px" height="60px" version="1.1" style="shape-rendering:geometricPrecision; text-rendering:geometricPrecision; image-rendering:optimizeQuality; fill-rule:evenodd; clip-rule:evenodd"
viewBox="0 0 2560 3010"
 xmlns:xlink="http://www.w3.org/1999/xlink">
 <defs>
  <style type="text/css">
   <![CDATA[
    .fil0 {fill:#606062}
   ]]>
  </style>
 </defs>
 <g id="Layer_x0020_1">
  <metadata id="CorelCorpID_0Corel-Layer"/>
  <g id="_2655876778896">
   <g>
    <g>
     <path class="fil0" d="M1269 1622c3,0 7,0 10,0 1,0 3,0 4,0 2,0 4,0 6,0 183,-3 331,-67 440,-190 240,-271 200,-735 195,-779 -15,-332 -172,-491 -302,-565 -97,-56 -209,-86 -335,-88l-5 0c0,0 -2,0 -2,0l-4 0c-69,0 -205,11 -335,85 -131,75 -291,234 -306,568 -5,44 -45,508 195,779 109,123 257,187 439,190zm-468 -953c0,-2 1,-4 1,-5 20,-447 338,-495 474,-495l2 0c1,0 3,0 5,0 168,4 454,72 474,495 0,2 0,4 0,5 1,4 45,428 -154,651 -78,89 -183,132 -321,134 -1,0 -2,0 -3,0l0 0c-1,0 -2,0 -3,0 -137,-2 -242,-45 -320,-134 -198,-222 -155,-647 -155,-651z"/>
     <path class="fil0" d="M2560 2391c0,-1 0,-1 0,-2 0,-5 0,-10 0,-15 -4,-124 -12,-412 -283,-505 -2,0 -4,-1 -6,-2 -281,-71 -515,-233 -517,-235 -38,-27 -91,-18 -118,20 -26,38 -17,91 21,118 11,7 259,180 569,260 145,51 162,207 166,349 0,5 0,10 1,15 0,56 -4,143 -14,193 -101,57 -496,255 -1099,255 -599,0 -997,-198 -1099,-256 -10,-50 -14,-136 -13,-192 0,-5 0,-10 0,-16 5,-142 21,-297 166,-349 311,-80 559,-253 569,-260 38,-27 48,-79 21,-117 -27,-38 -79,-48 -117,-21 -3,2 -235,164 -518,236 -2,0 -4,1 -6,2 -270,93 -278,381 -282,504 0,6 0,11 -1,16 0,0 0,1 0,1 0,33 -1,199 32,283 6,16 17,30 32,39 19,13 467,298 1217,298 750,0 1198,-286 1217,-298 14,-9 26,-23 32,-39 31,-83 31,-250 30,-282z"/>
    </g>
   </g>
   <g>
   </g>
   <g>
   </g>
   <g>
   </g>
   <g>
   </g>
   <g>
   </g>
   <g>
   </g>
   <g>
   </g>
   <g>
   </g>
   <g>
   </g>
   <g>
   </g>
   <g>
   </g>
   <g>
   </g>
   <g>
   </g>
   <g>
   </g>
   <g>
   </g>
  </g>
 </g>
</svg>
