<?xml version="1.0" encoding="UTF-8"?>
<!DOCTYPE svg PUBLIC "-//W3C//DTD SVG 1.1//EN" "http://www.w3.org/Graphics/SVG/1.1/DTD/svg11.dtd">
<!-- Creator: CorelDRAW X7 -->
<svg xmlns="http://www.w3.org/2000/svg" xml:space="preserve" width="50px" height="50px" version="1.1" style="shape-rendering:geometricPrecision; text-rendering:geometricPrecision; image-rendering:optimizeQuality; fill-rule:evenodd; clip-rule:evenodd"
viewBox="0 0 25913 25913"
 xmlns:xlink="http://www.w3.org/1999/xlink">
 <defs>
  <style type="text/css">
   <![CDATA[
    .fil1 {fill:#FEFEFE}
    .fil0 {fill:#1ABC9C}
   ]]>
  </style>
 </defs>
 <g id="Layer_x0020_1">
  <metadata id="CorelCorpID_0Corel-Layer"/>
  <circle class="fil0" cx="12956" cy="12956" r="12956"/>
  <path class="fil1" d="M12956 12956c914,0 1694,-323 2340,-969 646,-646 970,-1426 970,-2340 0,-913 -324,-1693 -970,-2339 -646,-647 -1426,-970 -2340,-970 -913,0 -1693,323 -2339,970 -647,646 -970,1426 -970,2339 0,914 323,1694 970,2340 646,646 1426,969 2339,969z"/>
  <path class="fil1" d="M18993 16451c-20,-290 -61,-604 -121,-940 -60,-336 -136,-647 -228,-935 -92,-287 -216,-567 -371,-840 -155,-273 -333,-505 -534,-698 -201,-192 -447,-346 -737,-461 -290,-115 -610,-172 -961,-172 -52,0 -172,62 -362,185 -189,124 -403,262 -642,414 -238,152 -548,290 -930,413 -382,124 -766,186 -1151,186 -385,0 -768,-62 -1150,-186 -382,-123 -693,-261 -931,-413 -238,-152 -452,-290 -642,-414 -189,-123 -310,-185 -362,-185 -350,0 -670,57 -961,172 -290,115 -535,269 -736,461 -201,193 -380,425 -535,698 -155,273 -278,553 -370,840 -92,288 -168,599 -228,935 -61,336 -101,649 -121,940 -20,290 -30,587 -30,892 0,689 209,1233 629,1633 419,399 977,598 1672,598l7531 0c695,0 1253,-199 1672,-598 420,-400 629,-944 629,-1633 0,-305 -10,-602 -30,-892z"/>
 </g>
</svg>
