<?xml version="1.0" encoding="UTF-8"?>
<!DOCTYPE svg PUBLIC "-//W3C//DTD SVG 1.1//EN" "http://www.w3.org/Graphics/SVG/1.1/DTD/svg11.dtd">
<!-- Creator: CorelDRAW X7 -->
<svg xmlns="http://www.w3.org/2000/svg" xml:space="preserve" width="156px" height="156px" version="1.1" style="shape-rendering:geometricPrecision; text-rendering:geometricPrecision; image-rendering:optimizeQuality; fill-rule:evenodd; clip-rule:evenodd"
viewBox="0 0 41568 41568"
 xmlns:xlink="http://www.w3.org/1999/xlink">
 <defs>
  <style type="text/css">
   <![CDATA[
    .fil0 {fill:#F47C5B}
   ]]>
  </style>
 </defs>
 <g id="Layer_x0020_1">
  <metadata id="CorelCorpID_0Corel-Layer"/>
  <path class="fil0" d="M20730 13426c1261,0 2337,445 3229,1336 890,892 1337,1969 1337,3230 0,106 -4,212 -10,316 -54,873 -333,1653 -836,2341 -145,198 -309,388 -491,570 -892,892 -1968,1337 -3229,1337 -1260,0 -2336,-445 -3228,-1337 -221,-220 -414,-453 -580,-696 -482,-706 -733,-1507 -755,-2402 -1,-43 -2,-86 -2,-129 0,-1261 445,-2338 1337,-3230 892,-891 1968,-1336 3228,-1336zm-5267 3781c-39,292 -59,554 -59,785 0,667 118,1303 354,1907 153,392 356,770 609,1136 -1285,39 -2334,547 -3151,1521l-1232 0 -362 0c-649,0 -1195,-160 -1640,-481 -443,-322 -666,-791 -666,-1409 0,-2798 492,-4197 1476,-4197 47,0 219,84 517,250 297,167 683,335 1159,505 475,171 946,255 1414,255 531,0 1059,-91 1581,-272zm14267 -5934c595,595 891,1312 891,2153 0,840 -296,1557 -891,2151 -594,595 -1312,892 -2151,892 -560,0 -1066,-132 -1516,-396 -226,-132 -438,-298 -637,-496 -593,-594 -892,-1311 -892,-2151 0,-499 105,-955 315,-1367 143,-282 336,-544 577,-786 595,-593 1312,-892 2153,-892 839,0 1557,299 2151,892zm422 5446c298,-166 469,-250 517,-251 983,0 1474,1400 1474,4197 0,618 -221,1088 -666,1409 -443,322 -991,482 -1640,482l-255 0 -1338 0c-817,-974 -1867,-1482 -3151,-1522 252,-364 455,-741 608,-1132 237,-605 356,-1242 356,-1911 0,-230 -20,-492 -59,-784 522,181 1050,272 1581,272 468,0 939,-84 1414,-256 476,-169 862,-337 1159,-504zm-13227 -3293c0,840 -296,1557 -892,2151 -168,168 -346,313 -533,433 -476,306 -1015,459 -1618,459 -840,0 -1557,-297 -2151,-892 -595,-594 -892,-1311 -892,-2151 0,-841 297,-1558 892,-2153 594,-593 1311,-892 2151,-892 841,0 1558,299 2151,892 265,265 471,554 618,868 183,390 274,818 274,1285zm24643 7358c0,-11479 -9305,-20784 -20784,-20784 -11479,0 -20784,9305 -20784,20784 0,11479 9305,20784 20784,20784 11479,0 20784,-9305 20784,-20784zm-17960 1837l867 -570c262,-171 432,-257 513,-257 483,0 924,79 1325,239 399,158 738,369 1015,636 279,266 524,587 739,963 137,243 258,491 360,743 56,137 106,276 151,416 126,396 230,826 314,1291 82,463 139,895 167,1295 3,52 6,104 10,156 21,351 31,709 31,1074 0,951 -289,1702 -867,2253 -135,128 -280,241 -435,339 -90,57 -182,108 -278,155 -382,185 -817,293 -1306,323 -95,6 -191,9 -289,9l-10391 0c-628,0 -1175,-119 -1641,-355 -244,-125 -466,-282 -665,-471 -578,-551 -867,-1302 -867,-2253 0,-419 13,-829 41,-1230 28,-400 83,-832 167,-1295 84,-465 188,-895 315,-1291 127,-397 296,-783 511,-1159 214,-376 460,-697 736,-963 279,-267 617,-478 1018,-636 400,-160 842,-239 1325,-239 79,0 250,85 511,257l869 570c316,210 740,399 1272,571 531,169 1067,255 1604,255 539,0 1075,-86 1606,-255 532,-172 956,-361 1272,-571z"/>
 </g>
</svg>
