<?xml version="1.0" encoding="UTF-8"?>
<!DOCTYPE svg PUBLIC "-//W3C//DTD SVG 1.1//EN" "http://www.w3.org/Graphics/SVG/1.1/DTD/svg11.dtd">
<!-- Creator: CorelDRAW X7 -->
<svg xmlns="http://www.w3.org/2000/svg" xml:space="preserve" width="50px" height="50px" version="1.1" style="shape-rendering:geometricPrecision; text-rendering:geometricPrecision; image-rendering:optimizeQuality; fill-rule:evenodd; clip-rule:evenodd"
viewBox="0 0 25574 25574"
 xmlns:xlink="http://www.w3.org/1999/xlink">
 <defs>
  <style type="text/css">
   <![CDATA[
    .fil1 {fill:#FEFEFE}
    .fil0 {fill:#1ABC9C}
    .fil2 {fill:#ED7250}
   ]]>
  </style>
 </defs>
 <g id="Layer_x0020_1">
  <metadata id="CorelCorpID_0Corel-Layer"/>
  <circle class="fil0" cx="12787" cy="12787" r="12787"/>
  <path class="fil1" d="M12787 12787c902,0 1671,-319 2309,-957 638,-638 957,-1407 957,-2309 0,-901 -319,-1671 -957,-2309 -638,-638 -1408,-957 -2309,-957 -902,0 -1671,319 -2309,957 -638,638 -957,1408 -957,2309 0,902 319,1671 957,2309 638,638 1407,957 2309,957z"/>
  <path class="fil1" d="M18744 16235c-20,-286 -59,-595 -119,-927 -59,-331 -135,-639 -225,-922 -91,-284 -213,-560 -366,-830 -153,-269 -329,-499 -527,-689 -199,-190 -441,-341 -727,-454 -287,-114 -603,-171 -949,-171 -51,0 -170,61 -357,183 -187,122 -398,258 -634,409 -235,150 -541,286 -918,408 -377,121 -755,182 -1135,182 -380,0 -759,-61 -1136,-182 -377,-122 -683,-258 -918,-408 -236,-151 -447,-287 -634,-409 -187,-122 -306,-183 -357,-183 -346,0 -662,57 -948,171 -287,113 -529,265 -727,454 -199,190 -375,420 -528,689 -153,270 -274,546 -365,830 -91,283 -166,591 -226,922 -59,332 -99,641 -119,927 -20,287 -29,580 -29,881 0,680 207,1217 620,1611 414,394 964,591 1650,591l7433 0c686,0 1236,-197 1650,-591 414,-394 621,-931 621,-1611 0,-301 -10,-594 -30,-881z"/>
  <circle class="fil1" cx="18356" cy="17712" r="2850"/>
  <g>
   <path id="Combined-Shape" class="fil2" d="M18348 18989l224 -297 -224 297zm440 -583l228 -303 -228 303zm443 -589l224 -297 -224 297zm440 -583l138 -184c56,-74 -10,-208 -128,-297l-982 -740c-118,-89 -265,-116 -321,-42l-1477 2894c-50,67 10,208 129,297l621 284c132,45 289,85 352,0l129 -171 1539 -2041zm-1323 1755l0 0 0 0zm1107 -1469l216 -286c-4,-3 -7,-6 -11,-9l-375 -283c-78,-58 -192,-44 -252,35 -60,80 -44,192 36,252l375 283c4,3 7,5 11,8l0 0 0 0 0 0 0 0 0 0 0 0 0 0 0 0zm-224 297l-215 286c-4,-2 -8,-5 -12,-8l-375 -282c-79,-60 -96,-172 -36,-252 60,-79 174,-94 252,-35l375 283c4,2 8,5 11,8l0 0 0 0 0 0 0 0 0 0 0 0 0 0 0 0zm-659 875l216 -286c-4,-3 -7,-6 -11,-9l-375 -283c-78,-58 -193,-44 -252,35 -60,80 -44,192 35,252l376 283c3,3 7,5 11,8l0 0 0 0 0 0 0 0 0 0 0 0 0 0 0 0zm-224 297l-216 286c-4,-2 -7,-5 -11,-8l-375 -282c-80,-60 -96,-172 -36,-252 60,-79 174,-94 252,-35l375 283c4,2 7,5 11,8l0 0 0 0 0 0 0 0 0 0 0 0 0 0 0 0z"/>
  </g>
 </g>
</svg>
