<?xml version="1.0" encoding="UTF-8"?>
<!DOCTYPE svg PUBLIC "-//W3C//DTD SVG 1.1//EN" "http://www.w3.org/Graphics/SVG/1.1/DTD/svg11.dtd">
<!-- Creator: CorelDRAW X7 -->
<svg xmlns="http://www.w3.org/2000/svg" xml:space="preserve" width="156px" height="156px" version="1.1" style="shape-rendering:geometricPrecision; text-rendering:geometricPrecision; image-rendering:optimizeQuality; fill-rule:evenodd; clip-rule:evenodd"
viewBox="0 0 41691 41691"
 xmlns:xlink="http://www.w3.org/1999/xlink">
 <defs>
  <style type="text/css">
   <![CDATA[
    .fil0 {fill:#F47C5B}
   ]]>
  </style>
 </defs>
 <g id="Layer_x0020_1">
  <metadata id="CorelCorpID_0Corel-Layer"/>
  <path class="fil0" d="M41691 20846c0,-11513 -9333,-20846 -20845,-20846 -11513,0 -20846,9333 -20846,20846 0,11512 9333,20845 20846,20845 11512,0 20845,-9333 20845,-20845zm-11327 4111c97,540 163,1045 195,1512 32,467 48,945 48,1435 0,1109 -336,1984 -1012,2628 -674,642 -1572,962 -2690,962l-12117 0c-1118,0 -2016,-320 -2690,-962 -676,-644 -1012,-1519 -1012,-2628 0,-490 16,-968 48,-1435 32,-468 97,-972 195,-1512 96,-541 218,-1041 366,-1505 149,-461 346,-912 596,-1351 249,-439 537,-813 860,-1123 324,-309 718,-557 1185,-742 468,-185 983,-277 1546,-277 83,0 278,100 582,298l1033 666c383,245 884,467 1498,664 615,200 1231,300 1851,300 619,0 1237,-100 1851,-300 615,-197 1114,-419 1497,-664l1033 -666c306,-198 499,-298 582,-298 565,0 1080,92 1547,277 466,185 862,433 1186,742 323,310 609,684 859,1123 249,439 448,890 597,1351 148,464 270,964 366,1505zm-5754 -5671c-1039,1040 -2294,1560 -3764,1560 -1469,0 -2724,-520 -3764,-1560 -1041,-1039 -1561,-2294 -1561,-3765 0,-1468 520,-2723 1561,-3763 1040,-1041 2295,-1560 3764,-1560 1470,0 2725,519 3764,1560 1040,1040 1561,2295 1561,3763 0,1471 -521,2726 -1561,3765z"/>
 </g>
</svg>
