<?xml version="1.0" encoding="UTF-8"?>
<!DOCTYPE svg PUBLIC "-//W3C//DTD SVG 1.1//EN" "http://www.w3.org/Graphics/SVG/1.1/DTD/svg11.dtd">
<!-- Creator: CorelDRAW X7 -->
<svg xmlns="http://www.w3.org/2000/svg" xml:space="preserve" width="50px" height="50px" version="1.1" style="shape-rendering:geometricPrecision; text-rendering:geometricPrecision; image-rendering:optimizeQuality; fill-rule:evenodd; clip-rule:evenodd"
viewBox="0 0 25218 25218"
 xmlns:xlink="http://www.w3.org/1999/xlink">
 <defs>
  <style type="text/css">
   <![CDATA[
    .fil1 {fill:#FEFEFE}
    .fil0 {fill:#1ABC9C}
   ]]>
  </style>
 </defs>
 <g id="Layer_x0020_1">
  <metadata id="CorelCorpID_0Corel-Layer"/>
  <circle class="fil0" cx="12609" cy="12609" r="12609"/>
  <g id="_2206686192464">
   <g>
    <g>
     <path class="fil1" d="M8422 9991c510,0 945,-180 1305,-541 361,-360 541,-795 541,-1305 0,-510 -180,-945 -541,-1306 -360,-360 -795,-541 -1305,-541 -510,0 -945,181 -1305,541 -361,361 -541,796 -541,1306 0,510 180,945 541,1305 360,361 795,541 1305,541z"/>
     <path class="fil1" d="M10618 12873c541,541 1194,811 1958,811 765,0 1418,-270 1959,-811 540,-541 811,-1194 811,-1958 0,-765 -271,-1418 -811,-1959 -541,-541 -1194,-811 -1959,-811 -764,0 -1417,270 -1958,811 -541,541 -811,1194 -811,1959 0,764 270,1417 811,1958z"/>
     <path class="fil1" d="M16731 9991c509,0 945,-180 1305,-541 361,-360 541,-795 541,-1305 0,-510 -180,-945 -541,-1306 -360,-360 -796,-541 -1305,-541 -510,0 -945,181 -1306,541 -360,361 -541,796 -541,1306 0,510 181,945 541,1305 361,361 796,541 1306,541z"/>
     <path class="fil1" d="M18606 9991c-29,0 -133,51 -314,152 -180,101 -414,203 -703,306 -288,104 -574,155 -858,155 -322,0 -642,-55 -959,-165 24,177 36,336 36,476 0,668 -195,1283 -585,1846 779,24 1416,332 1912,923l966 0c394,0 726,-97 995,-292 270,-195 404,-480 404,-855 0,-1697 -298,-2546 -894,-2546z"/>
     <path class="fil1" d="M17528 15823c-51,-282 -114,-543 -191,-783 -77,-241 -181,-475 -310,-703 -130,-228 -279,-423 -448,-584 -168,-162 -374,-290 -616,-386 -243,-97 -511,-145 -804,-145 -49,0 -152,52 -311,156 -158,103 -334,218 -526,346 -192,127 -449,242 -772,346 -322,103 -647,155 -974,155 -326,0 -651,-52 -973,-155 -323,-104 -580,-219 -772,-346 -192,-128 -368,-243 -527,-346 -158,-104 -262,-156 -310,-156 -293,0 -561,48 -804,145 -243,96 -448,224 -617,386 -168,161 -317,356 -447,584 -130,228 -233,462 -310,703 -77,240 -140,501 -191,783 -51,281 -84,543 -101,786 -17,243 -25,492 -25,746 0,577 175,1033 526,1367 351,334 818,501 1399,501l6304 0c582,0 1048,-167 1400,-501 351,-334 526,-790 526,-1367 0,-254 -8,-503 -25,-746 -17,-243 -51,-505 -101,-786z"/>
     <path class="fil1" d="M9929 12761c-389,-563 -584,-1178 -584,-1846 0,-140 12,-299 36,-476 -317,110 -637,165 -959,165 -284,0 -570,-51 -858,-155 -289,-103 -523,-205 -703,-306 -181,-101 -285,-152 -314,-152 -597,0 -895,849 -895,2546 0,375 135,660 404,855 270,195 601,292 995,292l967 0c495,-591 1132,-899 1911,-923z"/>
    </g>
   </g>
   <g>
   </g>
   <g>
   </g>
   <g>
   </g>
   <g>
   </g>
   <g>
   </g>
   <g>
   </g>
   <g>
   </g>
   <g>
   </g>
   <g>
   </g>
   <g>
   </g>
   <g>
   </g>
   <g>
   </g>
   <g>
   </g>
   <g>
   </g>
   <g>
   </g>
  </g>
 </g>
</svg>
