<?xml version="1.0" encoding="UTF-8"?>
<!DOCTYPE svg PUBLIC "-//W3C//DTD SVG 1.1//EN" "http://www.w3.org/Graphics/SVG/1.1/DTD/svg11.dtd">
<!-- Creator: CorelDRAW X7 -->
<svg xmlns="http://www.w3.org/2000/svg" xml:space="preserve" width="156px" height="156px" version="1.1" style="shape-rendering:geometricPrecision; text-rendering:geometricPrecision; image-rendering:optimizeQuality; fill-rule:evenodd; clip-rule:evenodd"
viewBox="0 0 41245 41245"
 xmlns:xlink="http://www.w3.org/1999/xlink">
 <defs>
  <style type="text/css">
   <![CDATA[
    .fil0 {fill:#F47C5B}
   ]]>
  </style>
 </defs>
 <g id="Layer_x0020_1">
  <metadata id="CorelCorpID_0Corel-Layer"/>
  <path class="fil0" d="M24346 11632c1029,1029 1544,2270 1544,3724 0,1454 -515,2694 -1544,3723 -1028,1029 -2269,1544 -3723,1544 -1455,0 -2695,-515 -3724,-1544 -1029,-1029 -1543,-2269 -1543,-3723 0,-1454 514,-2695 1543,-3724 1029,-1029 2269,-1544 3724,-1544 1453,0 2695,515 3723,1544zm-3723 -11632c-11390,0 -20623,9233 -20623,20623 0,11389 9233,20622 20623,20622 11389,0 20622,-9233 20622,-20622 0,-11390 -9233,-20623 -20622,-20623zm3310 20699l1023 -660c302,-197 494,-295 576,-295 558,0 1067,92 1530,276 462,182 852,425 1173,732 319,306 603,677 850,1111 246,435 443,881 590,1339 79,247 151,506 215,776 2405,148 4311,2145 4311,4588 0,2538 -2058,4596 -4597,4596 -1578,0 -2970,-795 -3797,-2006l-11180 0c-1106,0 -1993,-318 -2661,-953 -666,-636 -1000,-1502 -1000,-2599 0,-485 15,-958 47,-1421 33,-461 97,-959 192,-1495 97,-533 218,-1030 365,-1486 146,-459 342,-904 588,-1339 247,-434 531,-805 852,-1111 319,-305 709,-550 1172,-732 462,-184 971,-276 1529,-276 83,0 275,98 576,295l1023 660c379,242 872,461 1480,658 608,195 1219,293 1832,293 613,0 1223,-98 1831,-293 608,-197 1101,-416 1480,-658z"/>
  <path class="fil0" d="M29640 25758l-2382 4667c-81,108 16,336 208,479l273 125 728 333c213,73 466,137 568,0l208 -276 -18 -13 -554 -416 -51 -39c-129,-96 -155,-277 -58,-406 97,-128 281,-152 407,-57l196 149 409 308 17 13 361 -479 -18 -13 -353 -266 -253 -190c-128,-97 -153,-278 -56,-407 95,-127 280,-150 406,-56l216 162 389 294 18 15 368 -489 -20 -13 -526 -395 -79 -60c-127,-96 -154,-277 -58,-406 62,-81 160,-121 255,-114 53,4 107,23 152,57l605 457 18 13 360 -479 -17 -13 -605 -456c-129,-97 -155,-278 -58,-407 97,-127 281,-150 406,-56l605 456 18 15 223 -297c90,-120 -17,-336 -207,-479l-1538 -1159 -46 -34c-190,-144 -427,-188 -517,-68z"/>
 </g>
</svg>
